<?xml version="1.0" encoding="UTF-8"?>
<svg version="1.1" xmlns="http://www.w3.org/2000/svg" width="288" height="287">
<path d="M0 0 C95.04 0 190.08 0 288 0 C288 94.71 288 189.42 288 287 C192.96 287 97.92 287 0 287 C0 192.29 0 97.58 0 0 Z " fill="#D7C5AF" transform="translate(0,0)"/>
<path d="M0 0 C0.495 0.99 0.495 0.99 1 2 C0.0625 4.625 0.0625 4.625 -1 7 C-0.30390625 7.09410156 0.3921875 7.18820313 1.109375 7.28515625 C4.58365208 8.14433558 7.17397098 9.61536951 10.25 11.4375 C11.30703125 12.05496094 12.3640625 12.67242187 13.453125 13.30859375 C16 15 16 15 17 17 C16.45472656 16.80664062 15.90945312 16.61328125 15.34765625 16.4140625 C10.58228672 14.76858447 5.90126699 13.45991583 0.9453125 12.52734375 C-1 12 -1 12 -4 10 C-12.39535979 9.42049729 -21.8367645 11.71726368 -29 16 C-32.41990722 19.5631799 -34.78812454 23.84072542 -37.05151367 28.19848633 C-38.05766339 30.10952334 -39.14553437 31.95838465 -40.24609375 33.81640625 C-42.18429733 36.69570552 -42.18429733 36.69570552 -41.9375 39.0625 C-40.97184543 41.15227395 -40.97184543 41.15227395 -39.375 43.5625 C-37.90385481 47.24036299 -37.98698249 48.86258203 -38.4140625 52.71484375 C-38.51928223 53.70476318 -38.62450195 54.69468262 -38.73291016 55.71459961 C-38.8210498 56.46878174 -38.90918945 57.22296387 -39 58 C-34.96121876 57.73772165 -30.92275224 57.47106484 -26.88452148 57.20043945 C-25.5122043 57.109081 -24.13980846 57.0188959 -22.76733398 56.92993164 C-20.78869421 56.80146718 -18.8103576 56.66836027 -16.83203125 56.53515625 C-15.64327393 56.456604 -14.4545166 56.37805176 -13.22973633 56.29711914 C-8.61152488 55.87226743 -4.83695329 55.22584119 -0.8125 52.875 C-0.13832031 52.50117188 0.53585938 52.12734375 1.23046875 51.7421875 C5.49553116 47.54303113 5.48676041 40.28049892 6.125 34.5625 C6.25455078 33.46518555 6.25455078 33.46518555 6.38671875 32.34570312 C6.59628393 30.56439906 6.79887868 28.78227719 7 27 C7.7940625 26.71382812 8.588125 26.42765625 9.40625 26.1328125 C12.12524187 25.21187301 12.12524187 25.21187301 13.5 22.875 C13.995 22.25625 14.49 21.6375 15 21 C17.59375 20.8828125 17.59375 20.8828125 20 21 C18.57632928 32.36496605 16.7870743 43.64580318 14.875 54.9375 C14.59482111 56.6034768 14.31487195 58.26949225 14.03515625 59.93554688 C13.35940755 63.95747994 12.68059021 67.97888351 12 72 C12.7427417 72.10884521 13.4854834 72.21769043 14.25073242 72.32983398 C17.1480016 73.03607712 18.64886507 73.91579009 20.98828125 75.72265625 C21.69404297 76.26083984 22.39980469 76.79902344 23.12695312 77.35351562 C23.84818359 77.91748047 24.56941406 78.48144531 25.3125 79.0625 C26.05306641 79.63033203 26.79363281 80.19816406 27.55664062 80.78320312 C29.37732894 82.1810219 31.19132942 83.58668809 33 85 C36.16115776 83.63016497 36.9927092 83.0109362 39 80 C39.63078339 77.79158062 39.63078339 77.79158062 40.0625 75.4375 C40.53490771 73.05984465 40.91435164 71.17129671 42 69 C43.33607104 54.07663338 43.62367324 41.24573137 33.796875 29.328125 C32 27 32 27 32 25 C37.49560496 26.04620926 41.31808251 29.56956159 44.45703125 34.10546875 C45.28384265 35.47682662 46.08724936 36.86274885 46.859375 38.265625 C48.04232911 40.31016702 48.04232911 40.31016702 51 42 C50.566875 41.16855469 50.566875 41.16855469 50.125 40.3203125 C49.75375 39.59585938 49.3825 38.87140625 49 38.125 C48.62875 37.40570313 48.2575 36.68640625 47.875 35.9453125 C47 34 47 34 47 32 C49 32 49 32 50.8125 33.4375 C53.2088562 36.24466012 54.78835146 39.06977172 56.515625 42.31640625 C58.22936354 45.41466514 60.10726469 48.38291279 62 51.375 C67.30672394 59.98591055 71.21285565 67.80276089 72.640625 77.8828125 C72.78636237 79.97929643 72.78636237 79.97929643 74 81 C74.04080783 82.99958364 74.04254356 85.00045254 74 87 C72.35 87 70.7 87 69 87 C69.165 87.495 69.33 87.99 69.5 88.5 C70.75981488 94.7990744 69.99405234 100.01784298 68 106 C67.01 106 66.02 106 65 106 C65 107.32 65 108.64 65 110 C62.69 110 60.38 110 58 110 C57.3046483 115.42374328 59.13692127 118.49521504 61.90625 122.94921875 C63 125 63 125 63 128 C63.66 128 64.32 128 65 128 C65 128.66 65 129.32 65 130 C17.48 130 -30.04 130 -79 130 C-79 118.49106699 -78.9874558 107.07530686 -78.57192993 95.58932495 C-77.87577427 75.97321201 -77.70172705 56.7591115 -79.5625 37.1953125 C-79.7136245 35.46399538 -79.85996683 33.73224949 -80 32 C-80.08858276 30.93120605 -80.08858276 30.93120605 -80.17895508 29.84082031 C-80.26953125 27.9609375 -80.26953125 27.9609375 -80 25 C-78.57421875 23.46875 -78.57421875 23.46875 -76.6875 22.5 C-73.41046703 20.53638104 -73.0876572 20.24210085 -71.6875 16.375 C-70 13 -70 13 -67.671875 11.95703125 C-65.8874385 11.45483983 -64.08826028 11.00168984 -62.27734375 10.60546875 C-59.82213287 10.15658821 -59.82213287 10.15658821 -58 8 C-56.68 8 -55.36 8 -54 8 C-54.14183696 9.75032844 -54.28863429 11.50025534 -54.4375 13.25 C-54.51871094 14.22453125 -54.59992188 15.1990625 -54.68359375 16.203125 C-54.95074584 18.56461753 -55.35371968 20.71901065 -56 23 C-55.15179688 22.3709375 -54.30359375 21.741875 -53.4296875 21.09375 C-40.14637707 11.35584113 -27.02491432 1.7417549 -10.0625 1.375 C-4.60246715 1.71585558 -4.60246715 1.71585558 0 0 Z " fill="#130A13" transform="translate(132,157)"/>
<path d="M0 0 C4.455 0.99 4.455 0.99 9 2 C9.53511228 10.29424033 7.9131739 17.5407142 6.0234375 25.546875 C4.74366909 30.98763906 3.82358996 36.47327787 3 42 C3.73863281 41.39671875 4.47726563 40.7934375 5.23828125 40.171875 C18.62247189 29.6277858 30.97318658 26.98903201 48 29 C61.56251839 31.80517719 75.10715945 39.5054047 83 51 C86.77810011 58.02000698 90.18116369 64.68086889 90.0625 72.75 C90.05347656 73.54921875 90.04445313 74.3484375 90.03515625 75.171875 C90.02355469 75.77515625 90.01195312 76.3784375 90 77 C89.29875 76.80664062 88.5975 76.61328125 87.875 76.4140625 C82.26507866 74.874383 76.64989553 73.38582343 71 72 C71.18913843 73.96344393 71.18913843 73.96344393 72 76 C73.78614152 77.10101109 73.78614152 77.10101109 76.03515625 77.703125 C76.84404297 77.9609375 77.65292969 78.21875 78.48632812 78.484375 C79.33646484 78.73703125 80.18660156 78.9896875 81.0625 79.25 C81.91650391 79.518125 82.77050781 79.78625 83.65039062 80.0625 C85.76277116 80.72335648 87.87874196 81.3683379 90 82 C89.04719557 91.67848714 87.67480625 101.14653349 85.68164062 110.66601562 C84.02343893 118.66332048 82.62330314 126.70006817 81.25 134.75 C81.13731781 135.40971802 81.02463562 136.06943604 80.90853882 136.74914551 C80.26870672 140.49881567 79.63269741 144.24911979 79 148 C78.34 148 77.68 148 77 148 C76.95101562 147.36191406 76.90203125 146.72382813 76.8515625 146.06640625 C76.73941406 144.82697266 76.73941406 144.82697266 76.625 143.5625 C76.55539063 142.73878906 76.48578125 141.91507813 76.4140625 141.06640625 C76.20910156 140.04353516 76.20910156 140.04353516 76 139 C75.34 138.67 74.68 138.34 74 138 C74.45632812 136.84371094 74.91265625 135.68742188 75.3828125 134.49609375 C76.91637136 130.40330741 77.95506062 126.32813503 78.875 122.0625 C80.43617349 115.09330938 82.31166004 108.26710441 84.42529297 101.44555664 C85.32180979 98.51550303 86 96.08448704 86 93 C84.40846416 91.64659221 84.40846416 91.64659221 82.28125 90.51953125 C81.51425781 90.07802734 80.74726563 89.63652344 79.95703125 89.18164062 C78.74080078 88.50391602 78.74080078 88.50391602 77.5 87.8125 C76.68917969 87.34908203 75.87835938 86.88566406 75.04296875 86.40820312 C73.03412709 85.26198171 71.01991195 84.12656228 69 83 C69.33 83.33 69.66 83.66 70 84 C72.00905696 86.00905696 71.41813726 89.92619138 71.5625 92.6875 C71.6042334 93.46351562 71.6459668 94.23953125 71.68896484 95.0390625 C72.46064888 110.38455081 71.67922099 125.66333465 71 141 C71.99 141 72.98 141 74 141 C74.33 142.32 74.66 143.64 75 145 C68.375 148 68.375 148 65 148 C63.28641357 146.38161281 61.6292274 144.70328319 60 143 C55.78893624 138.69016608 55.78893624 138.69016608 50.375 136.5 C47.75528198 137.05151958 45.46382299 137.96260085 43 139 C42.01 139 41.02 139 40 139 C40 142.3 40 145.6 40 149 C40.99 149.33 41.98 149.66 43 150 C43 150.66 43 151.32 43 152 C42.01 152 41.02 152 40 152 C40.33 152.99 40.66 153.98 41 155 C41.66 155.33 42.32 155.66 43 156 C43.66 156.33 44.32 156.66 45 157 C46 160 46 160 45 163 C45.99 163.33 46.98 163.66 48 164 C45 165 45 165 42.79296875 164.09375 C34.2251961 158.85289356 27.94343232 151.9779347 21.33764648 144.49291992 C18.23242077 141.02724093 15.85315023 140.19210301 11.375 138.875 C10.18648437 138.52179688 8.99796875 138.16859375 7.7734375 137.8046875 C6.85820312 137.53914062 5.94296875 137.27359375 5 137 C5 136.34 5 135.68 5 135 C1.29181703 134.91243695 -2.41609763 134.85941985 -6.125 134.8125 C-7.17171875 134.78736328 -8.2184375 134.76222656 -9.296875 134.73632812 C-15.05471464 134.68166509 -19.13514632 134.79323659 -24 138 C-23.01 138.66 -22.02 139.32 -21 140 C-28.42857143 142.42857143 -28.42857143 142.42857143 -32 141 C-31.67 140.01 -31.34 139.02 -31 138 C-30.01 138 -29.02 138 -28 138 C-27.67 137.01 -27.34 136.02 -27 135 C-19.41122535 129.85875 -11.91181882 129.3624295 -3 130 C-3 129.34 -3 128.68 -3 128 C-1.515 127.505 -1.515 127.505 0 127 C0 126.34 0 125.68 0 125 C-5.61 124.67 -11.22 124.34 -17 124 C-15 118 -15 118 -12.9375 116.9375 C-11.9784375 116.4734375 -11.9784375 116.4734375 -11 116 C-10.18828772 113.44480079 -10.18828772 113.44480079 -10 111 C-9.01 111 -8.02 111 -7 111 C-7.95790837 107.44118853 -8.65866822 106.21794176 -11.8203125 104.19921875 C-12.91085938 103.70035156 -14.00140625 103.20148438 -15.125 102.6875 C-16.22070312 102.17574219 -17.31640625 101.66398437 -18.4453125 101.13671875 C-19.28835937 100.76160156 -20.13140625 100.38648437 -21 100 C-20.60167969 99.35675781 -20.20335938 98.71351562 -19.79296875 98.05078125 C-13.68577404 87.63437372 -11.93722858 77.62390936 -11.40844727 65.75805664 C-11.01471455 58.15299337 -9.64996463 52.04873448 -5 46 C-4.29485154 43.85266073 -4.29485154 43.85266073 -4 42 C-3.34 42 -2.68 42 -2 42 C-1.90912109 40.46279297 -1.90912109 40.46279297 -1.81640625 38.89453125 C-1.73194974 37.53384305 -1.64730433 36.17316657 -1.5625 34.8125 C-1.52318359 34.13896484 -1.48386719 33.46542969 -1.44335938 32.77148438 C-1.25614997 29.81933603 -1.00534532 27.02318413 -0.33984375 24.13671875 C-0.22769531 23.43160156 -0.11554688 22.72648437 0 22 C-0.66 21.34 -1.32 20.68 -2 20 C-2.04345703 17.93701172 -2.04345703 17.93701172 -1.7578125 15.4296875 C-1.66113281 14.53378906 -1.56445312 13.63789062 -1.46484375 12.71484375 C-1.35269531 11.77769531 -1.24054688 10.84054688 -1.125 9.875 C-1.02058594 8.93011719 -0.91617188 7.98523438 -0.80859375 7.01171875 C-0.54877824 4.6733792 -0.27563394 2.33652774 0 0 Z " fill="#140A12" transform="translate(128,20)"/>
<path d="M0 0 C0.495 0.99 0.495 0.99 1 2 C0.0625 4.625 0.0625 4.625 -1 7 C-0.30390625 7.09410156 0.3921875 7.18820313 1.109375 7.28515625 C4.58365208 8.14433558 7.17397098 9.61536951 10.25 11.4375 C11.30703125 12.05496094 12.3640625 12.67242187 13.453125 13.30859375 C16 15 16 15 17 17 C16.45472656 16.80664062 15.90945312 16.61328125 15.34765625 16.4140625 C10.58228672 14.76858447 5.90126699 13.45991583 0.9453125 12.52734375 C-1 12 -1 12 -4 10 C-12.39535979 9.42049729 -21.8367645 11.71726368 -29 16 C-32.41990722 19.5631799 -34.78812454 23.84072542 -37.05151367 28.19848633 C-38.05766339 30.10952334 -39.14553437 31.95838465 -40.24609375 33.81640625 C-42.18429733 36.69570552 -42.18429733 36.69570552 -41.9375 39.0625 C-40.97184543 41.15227395 -40.97184543 41.15227395 -39.375 43.5625 C-37.70354222 47.74114445 -38.05334512 50.3729051 -38.60546875 54.765625 C-39.06936926 58.56869054 -39.32536358 62.36480663 -39.5625 66.1875 C-39.64628906 67.48042969 -39.73007813 68.77335937 -39.81640625 70.10546875 C-39.87699219 71.06066406 -39.93757813 72.01585937 -40 73 C-37.62552587 74.27182393 -35.25044103 75.54248424 -32.875 76.8125 C-32.20984375 77.16892578 -31.5446875 77.52535156 -30.859375 77.89257812 C-28.90941414 78.93446898 -26.95507547 79.9677465 -25 81 C-23.40671875 81.85078125 -23.40671875 81.85078125 -21.78125 82.71875 C-19.2389377 83.88992758 -17.38462909 84.44960094 -14.625 84.6875 C-13.42875 84.790625 -12.2325 84.89375 -11 85 C-11.5390625 87.32421875 -11.5390625 87.32421875 -13 90 C-15.53795146 91.20359525 -17.71303324 92.04365543 -20.375 92.8125 C-21.04789063 93.02841797 -21.72078125 93.24433594 -22.4140625 93.46679688 C-25.78754208 94.51270836 -28.43685624 95 -32 95 C-31.979375 96.19625 -31.95875 97.3925 -31.9375 98.625 C-31.93117429 102.18004869 -32.30111125 105.50555624 -33 109 C-32.34 109 -31.68 109 -31 109 C-31 111.31 -31 113.62 -31 116 C-30.30438965 115.73783691 -29.6087793 115.47567383 -28.89208984 115.20556641 C-25.72016491 114.0108767 -22.54758976 112.81792302 -19.375 111.625 C-18.28058594 111.2125 -17.18617187 110.8 -16.05859375 110.375 C-14.46337891 109.77558594 -14.46337891 109.77558594 -12.8359375 109.1640625 C-11.37486572 108.61419678 -11.37486572 108.61419678 -9.88427734 108.05322266 C-0.49782302 104.62566519 -0.49782302 104.62566519 4 106 C4.66 106.33 5.32 106.66 6 107 C6 108.65 6 110.3 6 112 C4.906875 111.79375 3.81375 111.5875 2.6875 111.375 C-1.0838401 110.59653475 -1.0838401 110.59653475 -4 113 C-2.39125 112.9690625 -2.39125 112.9690625 -0.75 112.9375 C3 114 3 114 4.35546875 115.96484375 C5.91856107 119.44653315 7 122.15405042 7 126 C6.01 126 5.02 126 4 126 C4 126.66 4 127.32 4 128 C5.32 128 6.64 128 8 128 C8 128.66 8 129.32 8 130 C-20.71 130 -49.42 130 -79 130 C-79 118.49106699 -78.9874558 107.07530686 -78.57192993 95.58932495 C-77.87577427 75.97321201 -77.70172705 56.7591115 -79.5625 37.1953125 C-79.7136245 35.46399538 -79.85996683 33.73224949 -80 32 C-80.08858276 30.93120605 -80.08858276 30.93120605 -80.17895508 29.84082031 C-80.26953125 27.9609375 -80.26953125 27.9609375 -80 25 C-78.57421875 23.46875 -78.57421875 23.46875 -76.6875 22.5 C-73.41046703 20.53638104 -73.0876572 20.24210085 -71.6875 16.375 C-70 13 -70 13 -67.671875 11.95703125 C-65.8874385 11.45483983 -64.08826028 11.00168984 -62.27734375 10.60546875 C-59.82213287 10.15658821 -59.82213287 10.15658821 -58 8 C-56.68 8 -55.36 8 -54 8 C-54.14183696 9.75032844 -54.28863429 11.50025534 -54.4375 13.25 C-54.51871094 14.22453125 -54.59992188 15.1990625 -54.68359375 16.203125 C-54.95074584 18.56461753 -55.35371968 20.71901065 -56 23 C-55.15179688 22.3709375 -54.30359375 21.741875 -53.4296875 21.09375 C-40.14637707 11.35584113 -27.02491432 1.7417549 -10.0625 1.375 C-4.60246715 1.71585558 -4.60246715 1.71585558 0 0 Z " fill="#130911" transform="translate(132,157)"/>
<path d="M0 0 C1.39698636 0.28609307 2.7925433 0.57916905 4.1875 0.875 C5.35345703 1.11863281 5.35345703 1.11863281 6.54296875 1.3671875 C12.27665009 2.8439067 15.33627469 4.96931612 19.5 9.25 C19.98847412 9.74653076 20.47694824 10.24306152 20.98022461 10.75463867 C23.33363755 13.16972345 25.55013477 15.60770803 27.5625 18.3125 C31.07519115 22.18546716 35.33800928 24.6731303 40 27 C40.66 27 41.32 27 42 27 C41.34 26.67 40.68 26.34 40 26 C40.33 24.68 40.66 23.36 41 22 C45.43087162 25.61465843 46.66774499 28.27800623 47.54296875 33.9140625 C47.93119301 36.2908715 47.93119301 36.2908715 50 39 C50 39.99 50 40.98 50 42 C46.19968016 40.5197879 44.73912566 38.5130963 42.5625 35.125 C39.33942607 30.34215154 36.60952813 26.86984271 31 25 C31.53625 25.78375 32.0725 26.5675 32.625 27.375 C39.43077687 37.59586204 42.18058937 44.11584072 42.1875 56.4375 C42.19974609 57.58283203 42.21199219 58.72816406 42.22460938 59.90820312 C42.22654297 61.00970703 42.22847656 62.11121094 42.23046875 63.24609375 C42.23457764 64.25341553 42.23868652 65.2607373 42.24291992 66.29858398 C41.99351127 69.07215863 41.3097427 70.58761747 40 73 C39.896875 74.11375 39.79375 75.2275 39.6875 76.375 C38.8117206 80.99274593 37.19417389 82.64202232 34 86 C29.28766775 83.93174445 25.32854601 80.68211263 21.22070312 77.6328125 C20.62322266 77.19710937 20.02574219 76.76140625 19.41015625 76.3125 C18.87527588 75.91675781 18.34039551 75.52101563 17.78930664 75.11328125 C15.62272711 73.76526615 13.38549069 72.89236248 11 72 C11.54515082 62.50803128 12.98784895 53.23704618 14.58398438 43.87866211 C15.00441842 41.41157291 15.41680946 38.94323362 15.828125 36.47460938 C16.09328721 34.89835958 16.35889555 33.32218475 16.625 31.74609375 C16.74794434 31.0117662 16.87088867 30.27743866 16.99755859 29.52085876 C17.50074743 26.58416629 18.05599367 23.83201898 19 21 C15.3967764 21.30026863 14.27135597 21.68075768 11.875 24.5 C11.25625 25.325 10.6375 26.15 10 27 C9.01 27.33 8.02 27.66 7 28 C6.89510254 28.87736816 6.89510254 28.87736816 6.78808594 29.77246094 C6.45972804 32.43416597 6.1051663 35.09174504 5.75 37.75 C5.64042969 38.67039063 5.53085938 39.59078125 5.41796875 40.5390625 C4.48791647 47.29417909 4.48791647 47.29417909 2.390625 50.328125 C1.60171875 50.87984375 0.8128125 51.4315625 0 52 C-0.48178711 52.4323999 -0.96357422 52.8647998 -1.45996094 53.31030273 C-8.14394841 58.58864876 -16.41269781 57.78321104 -24.5 57.8125 C-26.00524408 57.83567505 -27.51045602 57.8610466 -29.015625 57.88867188 C-32.67705844 57.95113532 -36.33803572 57.98377691 -40 58 C-39.97607178 57.25089355 -39.95214355 56.50178711 -39.92749023 55.72998047 C-39.90887939 54.74400879 -39.89026855 53.75803711 -39.87109375 52.7421875 C-39.84716553 51.76620605 -39.8232373 50.79022461 -39.79858398 49.78466797 C-40.00712856 46.90144446 -40.51731344 45.5204183 -42.0625 43.125 C-44 40 -44 40 -43.76879883 37.57470703 C-42.47764383 33.25062935 -40.05304524 29.68802635 -37.6875 25.875 C-37.20087891 25.06417969 -36.71425781 24.25335938 -36.21289062 23.41796875 C-35.73400391 22.63808594 -35.25511719 21.85820312 -34.76171875 21.0546875 C-34.32819092 20.34812012 -33.89466309 19.64155273 -33.44799805 18.91357422 C-28.63378807 12.55144679 -20.18599343 10.73551064 -12.6875 9.41796875 C-4.39446189 8.49313239 -4.39446189 8.49313239 0 12 C2.47154128 12.74368742 2.47154128 12.74368742 5.0625 13.125 C7.84638328 13.60223713 10.31080231 14.10360077 13 15 C11.44038638 14.03697644 9.87716775 13.07978996 8.3125 12.125 C7.44238281 11.59132812 6.57226562 11.05765625 5.67578125 10.5078125 C3.16608918 9.09359186 0.69700931 8.00105211 -2 7 C-1.125 2.25 -1.125 2.25 0 0 Z " fill="#F1A20F" transform="translate(133,157)"/>
<path d="M0 0 C10.10569026 6.9542906 15.98745625 16.09398271 19.65625 27.77734375 C20.06194082 30.03169388 20.09616443 32.14831908 20.0625 34.4375 C20.05347656 35.23671875 20.04445313 36.0359375 20.03515625 36.859375 C20.02355469 37.46265625 20.01195312 38.0659375 20 38.6875 C19.29875 38.49414062 18.5975 38.30078125 17.875 38.1015625 C12.26507866 36.561883 6.64989553 35.07332343 1 33.6875 C1 35.0075 1 36.3275 1 37.6875 C-16.42611684 34.47444158 -16.42611684 34.47444158 -24 30.6875 C-24.66 33.6575 -25.32 36.6275 -26 39.6875 C-27.32 39.3575 -28.64 39.0275 -30 38.6875 C-29.67 34.0675 -29.34 29.4475 -29 24.6875 C-29.33 25.3475 -29.66 26.0075 -30 26.6875 C-30.99 26.6875 -31.98 26.6875 -33 26.6875 C-33.33 29.3275 -33.66 31.9675 -34 34.6875 C-40.75 35.8125 -40.75 35.8125 -43 34.6875 C-43.4140625 31.52734375 -43.4140625 31.52734375 -43.625 27.625 C-43.69976562 26.33464844 -43.77453125 25.04429688 -43.8515625 23.71484375 C-43.90054688 22.71582031 -43.94953125 21.71679688 -44 20.6875 C-44.66 20.6875 -45.32 20.6875 -46 20.6875 C-45.84152588 20.14383789 -45.68305176 19.60017578 -45.51977539 19.04003906 C-44.92399019 16.34347437 -44.78635695 13.80680105 -44.68359375 11.046875 C-44.64169922 9.97695312 -44.59980469 8.90703125 -44.55664062 7.8046875 C-44.51732422 6.69351563 -44.47800781 5.58234375 -44.4375 4.4375 C-44.39431641 3.31085937 -44.35113281 2.18421875 -44.30664062 1.0234375 C-44.20067985 -1.75508954 -44.09860858 -4.53370391 -44 -7.3125 C-45.32 -7.6425 -46.64 -7.9725 -48 -8.3125 C-31.19191304 -13.03767465 -14.57071081 -8.53114121 0 0 Z " fill="#0D4D51" transform="translate(198,58.3125)"/>
<path d="M0 0 C1.98 0.33 3.96 0.66 6 1 C6 1.66 6 2.32 6 3 C6.52078125 3.08894531 7.0415625 3.17789063 7.578125 3.26953125 C10.90961037 4.27435022 13.77239111 5.93038354 16.75 7.6875 C17.35199219 8.01427734 17.95398438 8.34105469 18.57421875 8.67773438 C20.296875 9.69921875 20.296875 9.69921875 23 12 C23.328125 15.14453125 23.328125 15.14453125 23 18 C23.495 18.99 23.495 18.99 24 20 C24.18095094 21.89280431 24.3208191 23.78964939 24.4375 25.6875 C24.69933572 29.22228224 24.98362384 32.49401484 26.0625 35.875 C27 39 27 39 27 45 C17.76 45 8.52 45 -1 45 C-0.01 44.67 0.98 44.34 2 44 C1.71125 43.30132812 1.4225 42.60265625 1.125 41.8828125 C0.75375 40.97273438 0.3825 40.06265625 0 39.125 C-0.37125 38.22007812 -0.7425 37.31515625 -1.125 36.3828125 C-2 34 -2 34 -2 32 C-4.97 32 -7.94 32 -11 32 C-8.9375 29.875 -8.9375 29.875 -6 28 C-2.1875 28.75 -2.1875 28.75 1 30 C1 28.35 1 26.7 1 25 C-4.27069204 23.92598631 -7.49344067 24.12121405 -12.484375 26.08984375 C-14.25748047 26.77143555 -14.25748047 26.77143555 -16.06640625 27.46679688 C-17.28199219 27.95212891 -18.49757813 28.43746094 -19.75 28.9375 C-22.17959237 29.89128131 -24.61282564 30.8349161 -27.046875 31.77734375 C-28.11776367 32.20265381 -29.18865234 32.62796387 -30.29199219 33.06616211 C-33 34 -33 34 -36 34 C-36 31.69 -36 29.38 -36 27 C-36.66 27 -37.32 27 -38 27 C-37.67 22.38 -37.34 17.76 -37 13 C-26.51083831 9.66253946 -15.90148424 6.97659327 -4.890625 6.2109375 C-2.91320656 6.10046985 -2.91320656 6.10046985 -1 5 C-0.34444881 2.47266765 -0.34444881 2.47266765 0 0 Z " fill="#09373C" transform="translate(137,239)"/>
<path d="M0 0 C2.59375 -0.1171875 2.59375 -0.1171875 5 0 C3.57632928 11.36496605 1.7870743 22.64580318 -0.125 33.9375 C-0.40517889 35.6034768 -0.68512805 37.26949225 -0.96484375 38.93554688 C-1.64059245 42.95747994 -2.31940979 46.97888351 -3 51 C-1.68 51.33 -0.36 51.66 1 52 C0.44054687 52.1959375 -0.11890625 52.391875 -0.6953125 52.59375 C-7.41510927 55.10016937 -13.23324762 58.48369451 -19.21484375 62.390625 C-24.00621949 64.82559726 -28.76782248 64.9029845 -34 64 C-38.14786162 62.39357686 -41.87573674 60.27935742 -45.6875 58 C-47.18700195 57.14148438 -47.18700195 57.14148438 -48.71679688 56.265625 C-51.15669552 54.86472625 -53.58014943 53.43525118 -56 52 C-55.67 47.05 -55.34 42.1 -55 37 C-52.89238281 36.86722656 -50.78476563 36.73445313 -48.61328125 36.59765625 C-46.56122609 36.46605896 -44.50924882 36.33330444 -42.45727539 36.20043945 C-41.03645423 36.10906052 -39.61555574 36.01887571 -38.19458008 35.92993164 C-36.1464295 35.8015187 -34.09859994 35.66874537 -32.05078125 35.53515625 C-30.20480347 35.41732788 -30.20480347 35.41732788 -28.3215332 35.29711914 C-23.66404781 34.88049586 -19.86971394 34.24497797 -15.8125 31.875 C-14.80123047 31.31425781 -14.80123047 31.31425781 -13.76953125 30.7421875 C-9.50446884 26.54303113 -9.51323959 19.28049892 -8.875 13.5625 C-8.78863281 12.83095703 -8.70226562 12.09941406 -8.61328125 11.34570312 C-8.40371607 9.56439906 -8.20112132 7.78227719 -8 6 C-7.2059375 5.71382812 -6.411875 5.42765625 -5.59375 5.1328125 C-2.87475813 4.21187301 -2.87475813 4.21187301 -1.5 1.875 C-1.005 1.25625 -0.51 0.6375 0 0 Z " fill="#4E5A46" transform="translate(147,178)"/>
<path d="M0 0 C0.11771717 3.79139846 0.18775198 7.58231735 0.25 11.375 C0.30027344 12.96634766 0.30027344 12.96634766 0.3515625 14.58984375 C0.44271677 22.01891712 -0.9439462 27.29143925 -4 34 C-6.12304653 41.24605012 -6.13365003 46.76929711 -4 54 C-2.02 53.505 -2.02 53.505 0 53 C0 53.66 0 54.32 0 55 C0.66 55 1.32 55 2 55 C3.4783226 57.95664519 3.06032783 60.74229737 3 64 C2.01 64.495 2.01 64.495 1 65 C1.66 65.66 2.32 66.32 3 67 C3.1723963 69.52166109 3.23250592 71.91953713 3.1875 74.4375 C3.18685547 75.11876953 3.18621094 75.80003906 3.18554688 76.50195312 C3.15827338 79.59597947 2.98489776 82.04530673 2 85 C-3.81885421 83.79231328 -8.80538202 81.8416208 -14.171875 79.30078125 C-17.75186582 77.65418326 -21.40798293 76.26360254 -25.1015625 74.89453125 C-27 74 -27 74 -28 72 C-27.44140625 69.6171875 -27.44140625 69.6171875 -26.5625 66.875 C-26.13130859 65.50988281 -26.13130859 65.50988281 -25.69140625 64.1171875 C-25.46324219 63.41851562 -25.23507813 62.71984375 -25 62 C-21.20856623 62.59793221 -18.26563613 63.71654613 -14.875 65.5 C-12.23115758 66.88219118 -9.8364494 68.05451687 -7 69 C-8.485 68.01 -8.485 68.01 -10 67 C-10.69711054 60.49363495 -9.10905034 55.12628908 -7 49 C-9.52985528 49.32386813 -9.52985528 49.32386813 -12 51 C-12.71025924 53.30507446 -13.06395203 55.51225276 -13.34765625 57.90625 C-14 60 -14 60 -15.68359375 61.34375 C-18.71469728 62.20247748 -20.96149086 61.69057026 -24 61 C-24.23153452 50.81248097 -23.97981742 40.72448689 -23.1875 30.5625 C-23.11740723 29.58152344 -23.04731445 28.60054687 -22.97509766 27.58984375 C-21.55509467 10.76521759 -21.55509467 10.76521759 -16.625 5.4296875 C-15.75875 4.91664062 -14.8925 4.40359375 -14 3.875 C-13.13375 3.33617187 -12.2675 2.79734375 -11.375 2.2421875 C-7.41317473 0.17004863 -4.41694001 -0.09815422 0 0 Z " fill="#512326" transform="translate(154,51)"/>
<path d="M0 0 C2.89100678 0.31254127 4.13846523 1.3758321 6.3125 3.25 C6.9725 3.58 7.6325 3.91 8.3125 4.25 C8.3125 4.91 8.3125 5.57 8.3125 6.25 C6.3325 6.58 4.3525 6.91 2.3125 7.25 C2.8075 8.735 2.8075 8.735 3.3125 10.25 C0.3425 10.91 -2.6275 11.57 -5.6875 12.25 C-5.03945759 16.11644879 -5.03945759 16.11644879 -3.125 18.0625 C-1.10323388 21.13910062 -1.48004674 23.65414351 -1.6875 27.25 C-4.6575 27.745 -4.6575 27.745 -7.6875 28.25 C-7.54649143 30.52113803 -7.39953245 32.79190725 -7.25 35.0625 C-7.16878906 36.32707031 -7.08757812 37.59164062 -7.00390625 38.89453125 C-6.81565453 42.24181893 -6.81565453 42.24181893 -5.6875 45.25 C-5.0275 45.25 -4.3675 45.25 -3.6875 45.25 C-4.0175 46.24 -4.3475 47.23 -4.6875 48.25 C-24.02792553 49.44148936 -24.02792553 49.44148936 -33.6875 49.25 C-33.64109375 48.53714844 -33.5946875 47.82429688 -33.546875 47.08984375 C-33.22741563 40.40203791 -33.22741563 40.40203791 -35.75 34.375 C-37.6875 31.25 -37.6875 31.25 -37.45629883 28.82470703 C-36.16514383 24.50062935 -33.74054524 20.93802635 -31.375 17.125 C-30.88837891 16.31417969 -30.40175781 15.50335938 -29.90039062 14.66796875 C-29.42150391 13.88808594 -28.94261719 13.10820312 -28.44921875 12.3046875 C-28.01569092 11.59812012 -27.58216309 10.89155273 -27.13549805 10.16357422 C-22.33539926 3.82009516 -13.30763885 1.66527471 -5.75 0.5 C-3.83247907 0.34346768 -1.91562897 0.17819804 0 0 Z " fill="#D26635" transform="translate(126.6875,165.75)"/>
<path d="M0 0 C6.88954522 -0.50824514 12.35015068 -0.26795977 18 4 C26.23559707 11.7382784 30.45012306 25.00246128 31 36 C31.33 36.99 31.66 37.98 32 39 C32.99 39 33.98 39 35 39 C35.495 40.98 35.495 40.98 36 43 C29.375 46 29.375 46 26 46 C23.3797243 43.70725876 21.3394247 41.58576618 19.58984375 38.56640625 C14.241378 29.93264213 3.48580716 23.16193572 -6 20 C-5.57534294 12.63927766 -3.01651083 6.67862176 0 0 Z " fill="#0B4B4E" transform="translate(167,122)"/>
<path d="M0 0 C1.65 0 3.3 0 5 0 C5 4.62 5 9.24 5 14 C6.32 13.67 7.64 13.34 9 13 C9 12.34 9 11.68 9 11 C19.42975534 7.84398312 28.03750252 6.4735763 39 8 C39.87398437 8.10054687 40.74796875 8.20109375 41.6484375 8.3046875 C43.43534646 8.51159275 45.21852593 8.75059363 47 9 C47 9.66 47 10.32 47 11 C47.99 11.33 48.98 11.66 50 12 C48.02 12 46.04 12 44 12 C44 12.66 44 13.32 44 14 C43.18917969 14.01417969 42.37835938 14.02835938 41.54296875 14.04296875 C33.50647592 14.38912735 26.92539142 15.75753694 20 20 C19.67 20.66 19.34 21.32 19 22 C18.01 22.33 17.02 22.66 16 23 C16.33 23.66 16.66 24.32 17 25 C20.465 24.505 20.465 24.505 24 24 C23.01 23.34 22.02 22.68 21 22 C27.0318807 18.51292644 31.27075911 17.4266003 38.1875 17.6875 C39.35829102 17.70200195 39.35829102 17.70200195 40.55273438 17.71679688 C44.47902274 17.79339113 48.16888434 18.05565686 52 19 C51.34 20.32 50.68 21.64 50 23 C48.18628906 23.00386719 48.18628906 23.00386719 46.3359375 23.0078125 C27.22604954 23.34094221 13.47787884 30.61946678 -1.22265625 42.71484375 C-3 44 -3 44 -5 44 C-4.85816304 42.24967156 -4.71136571 40.49974466 -4.5625 38.75 C-4.48128906 37.77546875 -4.40007812 36.8009375 -4.31640625 35.796875 C-4.04925416 33.43538247 -3.64628032 31.28098935 -3 29 C-3.99 29 -4.98 29 -6 29 C-5 26 -5 26 -2 24 C-1.39791246 21.49082707 -1.39791246 21.49082707 -1.26953125 18.5546875 C-1.18896484 17.47832031 -1.10839844 16.40195313 -1.02539062 15.29296875 C-0.95513672 14.16503906 -0.88488281 13.03710938 -0.8125 11.875 C-0.73064453 10.73933594 -0.64878906 9.60367188 -0.56445312 8.43359375 C-0.36369847 5.62302854 -0.17611816 2.81219909 0 0 Z " fill="#CD6337" transform="translate(81,136)"/>
<path d="M0 0 C2.97 0.66 5.94 1.32 9 2 C9.48382962 9.49935914 8.23548714 15.91824181 6.50195312 23.15136719 C4.95196541 29.77631467 4.24066336 36.18922704 4 43 C2.515 43.495 2.515 43.495 1 44 C0.51026428 48.3947216 0.03323517 52.79070279 -0.4375 57.1875 C-0.50791504 57.84327026 -0.57833008 58.49904053 -0.65087891 59.17468262 C-1.6442589 68.51074183 -2.4071753 77.8170266 -2.53295898 87.21166992 C-2.68139566 92.91366498 -3.93624061 97.68913293 -6 103 C-7.19625 102.67 -8.3925 102.34 -9.625 102 C-13.15791497 101.10734177 -16.34079109 100.81703955 -20 101 C-20.33 100.34 -20.66 99.68 -21 99 C-19.890625 97.07421875 -19.890625 97.07421875 -18.25 94.6875 C-12.69092156 85.67173242 -11.86903657 76.09269663 -11.40844727 65.75830078 C-11.0147583 58.15315637 -9.65001384 52.04879849 -5 46 C-4.29485154 43.85266073 -4.29485154 43.85266073 -4 42 C-3.34 42 -2.68 42 -2 42 C-1.90912109 40.46279297 -1.90912109 40.46279297 -1.81640625 38.89453125 C-1.73194974 37.53384305 -1.64730433 36.17316657 -1.5625 34.8125 C-1.52318359 34.13896484 -1.48386719 33.46542969 -1.44335938 32.77148438 C-1.25614997 29.81933603 -1.00534532 27.02318413 -0.33984375 24.13671875 C-0.22769531 23.43160156 -0.11554688 22.72648437 0 22 C-0.66 21.34 -1.32 20.68 -2 20 C-2.04345703 17.93701172 -2.04345703 17.93701172 -1.7578125 15.4296875 C-1.66113281 14.53378906 -1.56445312 13.63789062 -1.46484375 12.71484375 C-1.35269531 11.77769531 -1.24054688 10.84054688 -1.125 9.875 C-1.02058594 8.93011719 -0.91617188 7.98523438 -0.80859375 7.01171875 C-0.54877824 4.6733792 -0.27563394 2.33652774 0 0 Z " fill="#742F29" transform="translate(128,20)"/>
<path d="M0 0 C0.99 0.33 1.98 0.66 3 1 C4.1875 3.5625 4.1875 3.5625 5 6 C5.99 5.01 6.98 4.02 8 3 C10.9793306 8.85742182 12.63899072 14.30909646 13.60546875 20.8125 C13.77987687 22.97000104 13.77987687 22.97000104 15 24 C15.04080783 25.99958364 15.04254356 28.00045254 15 30 C13.35 30 11.7 30 10 30 C10.165 30.495 10.33 30.99 10.5 31.5 C11.75981488 37.7990744 10.99405234 43.01784298 9 49 C8.01 49 7.02 49 6 49 C6 50.32 6 51.64 6 53 C2.875 53.4375 2.875 53.4375 -1 53 C-2.8207139 51.4506425 -4.14131802 49.79083037 -5.578125 47.8828125 C-6.90214105 46.12958246 -8.27662712 44.68709703 -9.875 43.1875 C-12 41 -12 41 -12 39 C-12.99 39 -13.98 39 -15 39 C-14.41449486 35.10360267 -13.23399968 32.32768502 -11.25 28.9375 C-8.4453101 23.9738042 -6.23418022 18.94113176 -4.17578125 13.62890625 C-2.68721103 10.30064127 -1.32114857 7.66057428 2 6 C1.01 4.35 0.02 2.7 -1 1 C-0.67 0.67 -0.34 0.34 0 0 Z " fill="#0B3B40" transform="translate(191,214)"/>
<path d="M0 0 C6.15222436 0.43173504 9.81917949 1.65405342 15 5 C14.67 5.66 14.34 6.32 14 7 C13.34 7 12.68 7 12 7 C11.773125 7.763125 11.54625 8.52625 11.3125 9.3125 C10 12 10 12 7.515625 13.046875 C4.56358091 15.33883469 4.54071839 15.96994668 3.99609375 19.52734375 C3.78772931 21.32830263 3.60233003 23.13203616 3.4375 24.9375 C2.54172515 34.27346457 2.54172515 34.27346457 0.16796875 37.45703125 C-0.54746094 37.96621094 -1.26289063 38.47539062 -2 39 C-3.02480469 39.73476562 -3.02480469 39.73476562 -4.0703125 40.484375 C-4.74835938 40.90203125 -5.42640625 41.3196875 -6.125 41.75 C-6.80820313 42.17796875 -7.49140625 42.6059375 -8.1953125 43.046875 C-10 44 -10 44 -12 44 C-12 43.01 -12 42.02 -12 41 C-13.485 41.495 -13.485 41.495 -15 42 C-16.2039337 38.24600202 -16.09877617 34.66782588 -16.0625 30.75 C-16.05347656 29.48671875 -16.04445313 28.2234375 -16.03515625 26.921875 C-16.02355469 25.95765625 -16.01195313 24.9934375 -16 24 C-14.02 23.67 -12.04 23.34 -10 23 C-10.42275227 17.6099085 -11.49494909 15.05271512 -15 11 C-15.33 9.68 -15.66 8.36 -16 7 C-11.545 6.505 -11.545 6.505 -7 6 C-6.67 5.01 -6.34 4.02 -6 3 C-4.02 2.67 -2.04 2.34 0 2 C0 1.34 0 0.68 0 0 Z " fill="#F1AA2F" transform="translate(135,170)"/>
<path d="M0 0 C1.64548828 0.86625 1.64548828 0.86625 3.32421875 1.75 C4.77837203 2.50053073 6.23281445 3.25050144 7.6875 4 C8.40873047 4.3815625 9.12996094 4.763125 9.87304688 5.15625 C13.70546553 7.1162084 16.57371149 8.55874253 21 8 C21.33 7.01 21.66 6.02 22 5 C29.26 7.31 36.52 9.62 44 12 C42.99659698 21.6995625 41.67905903 31.12622195 39.68164062 40.66601562 C38.02343893 48.66332048 36.62330314 56.70006817 35.25 64.75 C35.13731781 65.40971802 35.02463562 66.06943604 34.90853882 66.74914551 C34.26870672 70.49881567 33.63269741 74.24911979 33 78 C32.34 78 31.68 78 31 78 C30.95101562 77.36191406 30.90203125 76.72382813 30.8515625 76.06640625 C30.77679688 75.24011719 30.70203125 74.41382813 30.625 73.5625 C30.55539063 72.73878906 30.48578125 71.91507812 30.4140625 71.06640625 C30.27742188 70.38449219 30.14078125 69.70257813 30 69 C29.34 68.67 28.68 68.34 28 68 C28.45632812 66.84371094 28.91265625 65.68742187 29.3828125 64.49609375 C30.91637136 60.40330741 31.95506062 56.32813503 32.875 52.0625 C34.43617349 45.09330938 36.31166004 38.26710441 38.42529297 31.44555664 C39.32180979 28.51550303 40 26.08448704 40 23 C38.40846416 21.64659221 38.40846416 21.64659221 36.28125 20.51953125 C35.51425781 20.07802734 34.74726563 19.63652344 33.95703125 19.18164062 C32.74080078 18.50391602 32.74080078 18.50391602 31.5 17.8125 C30.68917969 17.34908203 29.87835938 16.88566406 29.04296875 16.40820312 C27.03412709 15.26198171 25.01991195 14.12656228 23 13 C23.33 13.33 23.66 13.66 24 14 C25 15 25 15 25.09765625 18.16015625 C25.08605469 19.44792969 25.07445312 20.73570313 25.0625 22.0625 C25.05347656 23.35285156 25.04445312 24.64320312 25.03515625 25.97265625 C25.02355469 26.97167969 25.01195312 27.97070312 25 29 C24.896875 28.360625 24.79375 27.72125 24.6875 27.0625 C24.460625 26.381875 24.23375 25.70125 24 25 C23.01 24.67 22.02 24.34 21 24 C20.29875 23.0925 19.5975 22.185 18.875 21.25 C13.96831029 15.10558676 6.22373813 12.49547317 -1 10 C-0.67 6.7 -0.34 3.4 0 0 Z " fill="#190F16" transform="translate(174,90)"/>
<path d="M0 0 C0.72010254 0.48404297 1.44020508 0.96808594 2.18212891 1.46679688 C3.93069862 2.67399146 5.62722524 3.95591198 7.3125 5.25 C7.3125 5.91 7.3125 6.57 7.3125 7.25 C8.7975 7.745 8.7975 7.745 10.3125 8.25 C10.3125 8.91 10.3125 9.57 10.3125 10.25 C9.3225 10.25 8.3325 10.25 7.3125 10.25 C7.8075 11.735 7.8075 11.735 8.3125 13.25 C8.9725 13.58 9.6325 13.91 10.3125 14.25 C10.9725 14.58 11.6325 14.91 12.3125 15.25 C13.3125 18.25 13.3125 18.25 12.3125 21.25 C13.7975 21.745 13.7975 21.745 15.3125 22.25 C12.3125 23.25 12.3125 23.25 10.10546875 22.34375 C1.5376961 17.10289356 -4.74406768 10.2279347 -11.34985352 2.74291992 C-14.45507923 -0.72275907 -16.83434977 -1.55789699 -21.3125 -2.875 C-22.50101563 -3.22820312 -23.68953125 -3.58140625 -24.9140625 -3.9453125 C-25.82929688 -4.21085938 -26.74453125 -4.47640625 -27.6875 -4.75 C-27.6875 -5.41 -27.6875 -6.07 -27.6875 -6.75 C-31.39568297 -6.83756305 -35.10359763 -6.89058015 -38.8125 -6.9375 C-39.85921875 -6.96263672 -40.9059375 -6.98777344 -41.984375 -7.01367188 C-47.74221464 -7.06833491 -51.82264632 -6.95676341 -56.6875 -3.75 C-55.6975 -3.09 -54.7075 -2.43 -53.6875 -1.75 C-61.11607143 0.67857143 -61.11607143 0.67857143 -64.6875 -0.75 C-64.3575 -1.74 -64.0275 -2.73 -63.6875 -3.75 C-62.6975 -3.75 -61.7075 -3.75 -60.6875 -3.75 C-60.3575 -4.74 -60.0275 -5.73 -59.6875 -6.75 C-52.09872535 -11.89125 -44.59931882 -12.3875705 -35.6875 -11.75 C-35.6875 -12.41 -35.6875 -13.07 -35.6875 -13.75 C-23.05097004 -17.40794288 -9.86362457 -6.67584385 0 0 Z " fill="#100A15" transform="translate(160.6875,161.75)"/>
<path d="M0 0 C3.2118012 0.63791704 5.5539205 1.77993631 8.328125 3.50390625 C9.52695313 4.24350586 9.52695313 4.24350586 10.75 4.99804688 C11.575 5.51431641 12.4 6.03058594 13.25 6.5625 C14.09046875 7.08263672 14.9309375 7.60277344 15.796875 8.13867188 C17.86756237 9.42108621 19.93508572 10.70831806 22 12 C20.88970487 19.0209839 19.25501024 25.61269206 17.078125 32.37890625 C15.61602667 37.28964956 14.48610564 42.25937148 13.39501953 47.26416016 C12.75965705 50.10895733 12.1539269 52.69828282 10.82421875 55.3046875 C9.67463939 57.17965334 9.67463939 57.17965334 10.9375 60.0625 C11.288125 61.031875 11.63875 62.00125 12 63 C11.67 63.99 11.34 64.98 11 66 C9 63 9 63 9 60 C7.02 60.495 7.02 60.495 5 61 C5.03029297 60.28569824 5.06058594 59.57139648 5.09179688 58.83544922 C5.96576564 39.92427843 5.96576564 39.92427843 6 21 C5.99274902 20.28424805 5.98549805 19.56849609 5.97802734 18.83105469 C5.94919361 16.49014632 5.88469453 14.15243752 5.8125 11.8125 C5.80686035 11.08023193 5.8012207 10.34796387 5.79541016 9.59350586 C5.74969957 7.26096557 5.74969957 7.26096557 5 4 C2.5813053 2.01960221 2.5813053 2.01960221 0 1 C0 0.67 0 0.34 0 0 Z " fill="#EEA934" transform="translate(193,101)"/>
<path d="M0 0 C-0.515625 0.94875 -1.03125 1.8975 -1.5625 2.875 C-2.036875 3.90625 -2.51125 4.9375 -3 6 C-2.67 6.66 -2.34 7.32 -2 8 C-3.32 8.33 -4.64 8.66 -6 9 C-5.73343428 11.93443402 -5.73343428 11.93443402 -5 15 C-4.01 15.66 -3.02 16.32 -2 17 C-2.99 17.33 -3.98 17.66 -5 18 C-4.67 20.31 -4.34 22.62 -4 25 C-3.34 24.67 -2.68 24.34 -2 24 C-0.28766312 24.0870204 1.42175406 24.24097162 3.125 24.4375 C4.03507812 24.53933594 4.94515625 24.64117187 5.8828125 24.74609375 C6.58148438 24.82988281 7.28015625 24.91367188 8 25 C6.31404085 27.07502665 5.35860543 27.92103258 2.71166992 28.50390625 C-5.43817056 28.68284338 -10.78525381 26.12740378 -17.6875 22 C-18.68716797 21.42765625 -19.68683594 20.8553125 -20.71679688 20.265625 C-23.15669552 18.86472625 -25.58014943 17.43525118 -28 16 C-27.67 11.05 -27.34 6.1 -27 1 C-17.9446786 0.10564727 -9.08783274 -0.11173565 0 0 Z " fill="#475547" transform="translate(119,214)"/>
<path d="M0 0 C0.495 0.99 0.495 0.99 1 2 C0.0625 4.625 0.0625 4.625 -1 7 C-0.30390625 7.09410156 0.3921875 7.18820313 1.109375 7.28515625 C4.58365208 8.14433558 7.17397098 9.61536951 10.25 11.4375 C11.30703125 12.05496094 12.3640625 12.67242187 13.453125 13.30859375 C16 15 16 15 17 17 C16.45472656 16.80664062 15.90945312 16.61328125 15.34765625 16.4140625 C10.58228672 14.76858447 5.90126699 13.45991583 0.9453125 12.52734375 C-1 12 -1 12 -4 10 C-12.63070193 9.40425243 -21.25590627 12.47439943 -29 16 C-30.01603352 16.98370518 -31.0211092 17.97932728 -32 19 C-32.99 19 -33.98 19 -35 19 C-37.26188578 20.27781184 -37.26188578 20.27781184 -39.5625 21.9375 C-43.89873418 24.94936709 -43.89873418 24.94936709 -46 26 C-45.34 24.35 -44.68 22.7 -44 21 C-44.92232422 21.34224609 -44.92232422 21.34224609 -45.86328125 21.69140625 C-46.67152344 21.97886719 -47.47976562 22.26632813 -48.3125 22.5625 C-49.51326172 22.99755859 -49.51326172 22.99755859 -50.73828125 23.44140625 C-53 24 -53 24 -56 23 C-27.34556693 1.74868793 -27.34556693 1.74868793 -10.0625 1.375 C-4.60246715 1.71585558 -4.60246715 1.71585558 0 0 Z " fill="#1F0B13" transform="translate(132,157)"/>
<path d="M0 0 C1.9375 0.375 1.9375 0.375 4 1 C5.60725635 4.21451269 5.05748185 7.43612536 5 11 C4.17798096 11.29245605 3.35596191 11.58491211 2.5090332 11.88623047 C-0.55699875 12.97757767 -3.62271828 14.06979688 -6.68823242 15.16259766 C-8.0120021 15.63429871 -9.33589371 16.1056577 -10.65991211 16.57666016 C-12.56917402 17.2559237 -14.47798584 17.9364391 -16.38671875 18.6171875 C-17.53358154 19.02565918 -18.68044434 19.43413086 -19.86206055 19.85498047 C-21.83373349 20.57443477 -23.79177607 21.33373024 -25.72583008 22.14892578 C-28 23 -28 23 -31 23 C-31 20.69 -31 18.38 -31 16 C-31.66 16 -32.32 16 -33 16 C-33.37325771 10.89881128 -32.88570609 7.28733476 -30 3 C-26.3771139 1.78702781 -22.79809216 1.31597032 -19 1 C-19 1.66 -19 2.32 -19 3 C-18.34 3 -17.68 3 -17 3 C-17 3.99 -17 4.98 -17 6 C-16.360625 6.28875 -15.72125 6.5775 -15.0625 6.875 C-13 8 -13 8 -12 10 C-11.01 10 -10.02 10 -9 10 C-8.34 7.69 -7.68 5.38 -7 3 C-4.92446352 2.4465236 -3.15634036 2 -1 2 C-0.67 1.34 -0.34 0.68 0 0 Z " fill="#475749" transform="translate(132,250)"/>
<path d="M0 0 C1.39698636 0.28609307 2.7925433 0.57916905 4.1875 0.875 C5.35345703 1.11863281 5.35345703 1.11863281 6.54296875 1.3671875 C15.30040652 3.62268022 21.70369978 9.96711235 26.6015625 17.4453125 C28.99862842 22.39465004 29.39651334 26.54794159 29 32 C28.34 32 27.68 32 27 32 C26.54625 30.865625 26.0925 29.73125 25.625 28.5625 C24.42904194 24.95278308 24.42904194 24.95278308 22 24 C21.67 24.99 21.34 25.98 21 27 C20.67 27.99 20.34 28.98 20 30 C20.99 30.33 21.98 30.66 23 31 C22.34 31 21.68 31 21 31 C21.185625 31.7425 21.37125 32.485 21.5625 33.25 C21.99203108 35.94990963 21.85122974 37.44631077 21 40 C19.35 40 17.7 40 16 40 C16.30872329 37.39533457 16.62181723 34.79132309 16.9375 32.1875 C17.02451172 31.44951172 17.11152344 30.71152344 17.20117188 29.95117188 C17.58216546 26.83266879 18.00369374 23.98891878 19 21 C17.35 21 15.7 21 14 21 C14.66 20.01 15.32 19.02 16 18 C12.77085548 14.31420878 9.11346469 12.31643755 4.75 10.25 C3.77546875 9.77626953 3.77546875 9.77626953 2.78125 9.29296875 C1.19106299 8.52126035 -0.40399229 7.75959725 -2 7 C-1.125 2.25 -1.125 2.25 0 0 Z " fill="#EAA52E" transform="translate(133,157)"/>
<path d="M0 0 C0.99 0 1.98 0 3 0 C5.13215431 5.09862986 6.37923666 9.50639793 6.7890625 15.01953125 C6.95084914 17.20917128 6.95084914 17.20917128 8 20 C8.99 20 9.98 20 11 20 C11.33 21.32 11.66 22.64 12 24 C5.375 27 5.375 27 2 27 C-0.62087274 24.70673635 -2.66491488 22.56818781 -4.4375 19.5625 C-5.87457042 17.2057045 -7.21965881 15.70677703 -9.1875 13.8125 C-10.115625 12.884375 -11.04375 11.95625 -12 11 C-12 10.34 -12 9.68 -12 9 C-11.01 8.67 -10.02 8.34 -9 8 C-8.67 7.01 -8.34 6.02 -8 5 C-6.02583732 3.94991347 -4.02417134 2.95012124 -2 2 C-1.34 1.34 -0.68 0.68 0 0 Z " fill="#2E615E" transform="translate(191,141)"/>
<path d="M0 0 C-1.41411983 4.2423595 -4.51215051 5.39706957 -8.1875 7.5625 C-14.54036816 11.38252998 -20.58044237 15.43277292 -26.39331055 20.03930664 C-29.09843779 22.0825367 -30.44506237 23.04418532 -33.89453125 22.76953125 C-34.93673828 22.38861328 -34.93673828 22.38861328 -36 22 C-35.08973193 20.26745644 -34.17146832 18.53911266 -33.25 16.8125 C-32.73953125 15.84957031 -32.2290625 14.88664063 -31.703125 13.89453125 C-28.24325454 8.01433856 -25.75874473 5.44278806 -19.1875 3.25 C-18.00542969 2.84265625 -16.82335937 2.4353125 -15.60546875 2.015625 C-10.4106404 0.55229307 -5.3940937 -0.16345738 0 0 Z " fill="#C76035" transform="translate(129,166)"/>
<path d="M0 0 C2.58587003 1.26587358 5.16865501 2.53745849 7.75 3.8125 C8.47960937 4.16892578 9.20921875 4.52535156 9.9609375 4.89257812 C13.5665024 6.67897165 16.88573931 8.42057973 20 11 C20.90105469 11.57234375 21.80210937 12.1446875 22.73046875 12.734375 C25 15 25 15 25.48828125 18.453125 C25.43027344 19.70609375 25.37226563 20.9590625 25.3125 22.25 C25.24482422 24.14492187 25.24482422 24.14492187 25.17578125 26.078125 C25.11777344 27.04234375 25.05976563 28.0065625 25 29 C24.896875 28.360625 24.79375 27.72125 24.6875 27.0625 C24.460625 26.381875 24.23375 25.70125 24 25 C23.01 24.67 22.02 24.34 21 24 C20.29875 23.0925 19.5975 22.185 18.875 21.25 C13.96831029 15.10558676 6.22373813 12.49547317 -1 10 C-0.67 6.7 -0.34 3.4 0 0 Z " fill="#0D494C" transform="translate(174,90)"/>
<path d="M0 0 C0.66 0.66 1.32 1.32 2 2 C1.9765625 5.0390625 1.9765625 5.0390625 1.625 8.625 C1.45871094 10.40777344 1.45871094 10.40777344 1.2890625 12.2265625 C1.19367188 13.14179687 1.09828125 14.05703125 1 15 C0.67 15 0.34 15 0 15 C-0.18175781 15.71027344 -0.36351562 16.42054687 -0.55078125 17.15234375 C-0.80214844 18.07144531 -1.05351562 18.99054688 -1.3125 19.9375 C-1.55613281 20.85402344 -1.79976562 21.77054688 -2.05078125 22.71484375 C-2.36402344 23.46894531 -2.67726562 24.22304687 -3 25 C-3.99 25.33 -4.98 25.66 -6 26 C-6.33 27.65 -6.66 29.3 -7 31 C-7.33 31 -7.66 31 -8 31 C-8 28.03 -8 25.06 -8 22 C-12.455 21.01 -12.455 21.01 -17 20 C-16.34 18.35 -15.68 16.7 -15 15 C-15.99 14.34 -16.98 13.68 -18 13 C-18.40843923 10.28796348 -18.13336867 7.7562858 -18 5 C-17.67 5 -17.34 5 -17 5 C-16.67 7.31 -16.34 9.62 -16 12 C-15.34 12 -14.68 12 -14 12 C-14.33 8.37 -14.66 4.74 -15 1 C-12.32072659 5.01891012 -12.84398752 7.24161923 -13 12 C-10.03 12 -7.06 12 -4 12 C-3.67 9.36 -3.34 6.72 -3 4 C-2.01 4 -1.02 4 0 4 C0 2.68 0 1.36 0 0 Z " fill="#101419" transform="translate(168,81)"/>
<path d="M0 0 C1.32 0.33 2.64 0.66 4 1 C3.01 1 2.02 1 1 1 C1.0825 1.721875 1.165 2.44375 1.25 3.1875 C0.92256852 6.87110419 -0.46093936 8.38626111 -3 11 C-3.66 11 -4.32 11 -5 11 C-5.33 11.99 -5.66 12.98 -6 14 C-7.65 14 -9.3 14 -11 14 C-11.99 16.64 -12.98 19.28 -14 22 C-18.19077074 20.95230731 -19.33791849 20.23252755 -22 17 C-22 16.01 -22 15.02 -22 14 C-22.66 14 -23.32 14 -24 14 C-24 13.34 -24 12.68 -24 12 C-25.258125 12.33 -26.51625 12.66 -27.8125 13 C-30.38987302 13.67603227 -32.30212925 14 -35 14 C-35.33 15.65 -35.66 17.3 -36 19 C-36.33 19 -36.66 19 -37 19 C-37 17.02 -37 15.04 -37 13 C-26.54718137 9.60403819 -15.87810289 6.97496742 -4.890625 6.2109375 C-2.91320656 6.10046985 -2.91320656 6.10046985 -1 5 C-0.34444881 2.47266765 -0.34444881 2.47266765 0 0 Z " fill="#09363A" transform="translate(137,239)"/>
<path d="M0 0 C0.72010254 0.48404297 1.44020508 0.96808594 2.18212891 1.46679688 C3.93069862 2.67399146 5.62722524 3.95591198 7.3125 5.25 C7.3125 5.91 7.3125 6.57 7.3125 7.25 C8.7975 7.745 8.7975 7.745 10.3125 8.25 C10.3125 8.91 10.3125 9.57 10.3125 10.25 C8.375 9.9375 8.375 9.9375 6.3125 9.25 C5.8175 7.765 5.8175 7.765 5.3125 6.25 C2.98199015 4.68065289 0.68555487 3.26076678 -1.75 1.875 C-3.12144572 1.07612476 -4.49254258 0.27665031 -5.86328125 -0.5234375 C-6.52408691 -0.9059668 -7.18489258 -1.28849609 -7.86572266 -1.68261719 C-10.09062468 -2.98619152 -12.26733678 -4.35751253 -14.4375 -5.75 C-20.67274381 -9.58707311 -26.49817767 -8.93366219 -33.625 -8.9375 C-35.41454102 -8.95586914 -35.41454102 -8.95586914 -37.24023438 -8.97460938 C-38.38685547 -8.97654297 -39.53347656 -8.97847656 -40.71484375 -8.98046875 C-41.76406006 -8.98457764 -42.81327637 -8.98868652 -43.89428711 -8.99291992 C-46.73575035 -8.74580377 -48.26505267 -8.18924722 -50.6875 -6.75 C-52.6875 -5.75 -54.6875 -4.75 -56.6875 -3.75 C-55.6975 -3.09 -54.7075 -2.43 -53.6875 -1.75 C-61.11607143 0.67857143 -61.11607143 0.67857143 -64.6875 -0.75 C-64.3575 -1.74 -64.0275 -2.73 -63.6875 -3.75 C-62.6975 -3.75 -61.7075 -3.75 -60.6875 -3.75 C-60.3575 -4.74 -60.0275 -5.73 -59.6875 -6.75 C-52.09872535 -11.89125 -44.59931882 -12.3875705 -35.6875 -11.75 C-35.6875 -12.41 -35.6875 -13.07 -35.6875 -13.75 C-23.05097004 -17.40794288 -9.86362457 -6.67584385 0 0 Z " fill="#495346" transform="translate(160.6875,161.75)"/>
<path d="M0 0 C4.455 0.99 4.455 0.99 9 2 C9.34659834 9.85622895 8.1771346 16.45778372 6 24 C4.35 24.33 2.7 24.66 1 25 C1 23.68 1 22.36 1 21 C0.01 20.67 -0.98 20.34 -2 20 C-1.34 13.4 -0.68 6.8 0 0 Z " fill="#1D0F17" transform="translate(128,20)"/>
<path d="M0 0 C1.6250814 2.89488185 2.29684434 5.19908712 2.5625 8.5 C2.8090907 11.43895859 3.21723678 14.15358828 4 17 C5.32 16.67 6.64 16.34 8 16 C8 16.66 8 17.32 8 18 C8.66 18 9.32 18 10 18 C11.4783226 20.95664519 11.06032783 23.74229737 11 27 C10.34 27.33 9.68 27.66 9 28 C9.66 28.66 10.32 29.32 11 30 C11.14497985 32.58064129 11.18677545 35.04943884 11.125 37.625 C11.11597656 38.33140625 11.10695312 39.0378125 11.09765625 39.765625 C11.07407603 41.51056098 11.03820461 43.25532295 11 45 C10.67 45 10.34 45 10 45 C10 42.03 10 39.06 10 36 C8.02 35.67 6.04 35.34 4 35 C3.79503906 33.89140625 3.59007812 32.7828125 3.37890625 31.640625 C3.10683538 30.17707133 2.83469638 28.71353033 2.5625 27.25 C2.42779297 26.52039063 2.29308594 25.79078125 2.15429688 25.0390625 C1.41290894 20.959197 1.41290894 20.959197 0.39038086 16.94433594 C0 15 0 15 1 12 C-0.98 12.99 -0.98 12.99 -3 14 C-2.5359375 13.0409375 -2.5359375 13.0409375 -2.0625 12.0625 C-0.68064597 8.07950896 -0.3463457 4.18349151 0 0 Z " fill="#151113" transform="translate(146,88)"/>
<path d="M0 0 C0.33 0 0.66 0 1 0 C0.30272425 6.88737681 -0.7135463 13.67666527 -1.875 20.5 C-2.05135986 21.54647705 -2.22771973 22.5929541 -2.40942383 23.67114258 C-6.3118418 46.74853516 -6.3118418 46.74853516 -8 55 C-8.66 55 -9.32 55 -10 55 C-10.07347656 54.04287109 -10.07347656 54.04287109 -10.1484375 53.06640625 C-10.26058594 51.82697266 -10.26058594 51.82697266 -10.375 50.5625 C-10.44460937 49.73878906 -10.51421875 48.91507813 -10.5859375 48.06640625 C-10.72257813 47.38449219 -10.85921875 46.70257813 -11 46 C-11.66 45.67 -12.32 45.34 -13 45 C-12.54238281 43.83984375 -12.08476562 42.6796875 -11.61328125 41.484375 C-10.11108804 37.47500637 -9.08125414 33.43250593 -8.1875 29.25 C-5.97372769 19.34527736 -3.00570591 9.68839203 0 0 Z " fill="#181215" transform="translate(215,113)"/>
<path d="M0 0 C0.33 0 0.66 0 1 0 C1 1.65 1 3.3 1 5 C4.3 5.66 7.6 6.32 11 7 C9.25 16.75 9.25 16.75 7 19 C5.96875 18.67 4.9375 18.34 3.875 18 C0.51573291 17.0284808 -2.49106202 16.82883229 -6 17 C-6.33 16.34 -6.66 15.68 -7 15 C-5.8203125 12.79296875 -5.8203125 12.79296875 -4.125 10.1875 C-1.89150474 6.75415032 -0.57053543 4.07420812 0 0 Z " fill="#943C2E" transform="translate(114,104)"/>
<path d="M0 0 C3.61598572 0.82651102 5.4305075 2.18352746 7.4375 5.1875 C9.76289919 9.22165899 11.5920176 13.45559954 13.375 17.75 C13.65013428 18.3999292 13.92526855 19.0498584 14.20874023 19.71948242 C15.56754355 23.13347025 16.49668106 25.51361352 15 29 C13.45618945 26.94314063 11.91495053 24.88488462 10.38671875 22.81640625 C6.93206646 18.23402838 3.58040356 14.46323196 -1 11 C-0.67 9.68 -0.34 8.36 0 7 C0.66 7 1.32 7 2 7 C1.42415568 4.61435923 0.77772405 2.33317216 0 0 Z " fill="#D2C4B2" transform="translate(199,48)"/>
<path d="M0 0 C1.13308594 0.18369141 1.13308594 0.18369141 2.2890625 0.37109375 C6.6573971 1.14242556 9.93611452 2.13397763 13.625 4.75 C11.13435112 5.43707555 9.24613708 5.75 6.625 5.75 C6.955 6.74 7.285 7.73 7.625 8.75 C6.305 8.75 4.985 8.75 3.625 8.75 C3.625 8.09 3.625 7.43 3.625 6.75 C-1.985 6.42 -7.595 6.09 -13.375 5.75 C-12.715 3.77 -12.055 1.79 -11.375 -0.25 C-7.36501092 -1.58666303 -4.05307326 -0.73256561 0 0 Z " fill="#361A1E" transform="translate(124.375,138.25)"/>
<path d="M0 0 C0.33 0.99 0.66 1.98 1 3 C2.65 2.67 4.3 2.34 6 2 C5.69215623 4.95888673 5.37894426 7.91703167 5.0625 10.875 C4.97548828 11.71675781 4.88847656 12.55851562 4.79882812 13.42578125 C4.71181641 14.23144531 4.62480469 15.03710938 4.53515625 15.8671875 C4.456604 16.61081543 4.37805176 17.35444336 4.29711914 18.12060547 C4 20 4 20 3 22 C2.34 22 1.68 22 1 22 C0.67 25.63 0.34 29.26 0 33 C-0.33 33 -0.66 33 -1 33 C-5.02959593 22.57045759 -1.63152144 10.70784942 0 0 Z " fill="#522122" transform="translate(128,42)"/>
<path d="M0 0 C4.49977884 -0.11690073 8.99916287 -0.18748837 13.5 -0.25 C15.40265625 -0.30027344 15.40265625 -0.30027344 17.34375 -0.3515625 C24.74218647 -0.42862955 29.72115117 -0.02734243 36 4 C35.67 5.65 35.34 7.3 35 9 C30.38 7.68 25.76 6.36 21 5 C21 4.34 21 3.68 21 3 C20.43490723 2.98018066 19.86981445 2.96036133 19.28759766 2.93994141 C16.73292003 2.84481764 14.17907459 2.73508942 11.625 2.625 C10.73554687 2.5940625 9.84609375 2.563125 8.9296875 2.53125 C8.07890625 2.49257812 7.228125 2.45390625 6.3515625 2.4140625 C5.56604004 2.3826416 4.78051758 2.3512207 3.97119141 2.31884766 C2 2 2 2 0 0 Z " fill="#282D1F" transform="translate(112,152)"/>
<path d="M0 0 C3.94139078 1.66751148 6.7892812 4.22710649 10 7 C9.67 4.69 9.34 2.38 9 0 C9.66 0.33 10.32 0.66 11 1 C12.47180796 5.82425944 13.25376143 9.92477148 13 15 C12.34 15 11.68 15 11 15 C10.319375 13.2984375 10.319375 13.2984375 9.625 11.5625 C8.42904194 7.95278308 8.42904194 7.95278308 6 7 C5.67 7.99 5.34 8.98 5 10 C4.67 10.99 4.34 11.98 4 13 C4.99 13.33 5.98 13.66 7 14 C6.34 14 5.68 14 5 14 C5.185625 14.7425 5.37125 15.485 5.5625 16.25 C5.99203108 18.94990963 5.85122974 20.44631077 5 23 C3.35 23 1.7 23 0 23 C0.30872329 20.39533457 0.62181723 17.79132309 0.9375 15.1875 C1.02451172 14.44951172 1.11152344 13.71152344 1.20117188 12.95117188 C1.58216546 9.83266879 2.00369374 6.98891878 3 4 C1.35 4 -0.3 4 -2 4 C-1.34 2.68 -0.68 1.36 0 0 Z " fill="#F1A716" transform="translate(149,174)"/>
<path d="M0 0 C0.33 0.66 0.66 1.32 1 2 C1.71671875 2.13535156 2.4334375 2.27070313 3.171875 2.41015625 C6.67749525 3.14130081 9.17436926 4.61560543 12.25 6.4375 C13.30703125 7.05496094 14.3640625 7.67242187 15.453125 8.30859375 C18 10 18 10 19 12 C18.45472656 11.80664062 17.90945312 11.61328125 17.34765625 11.4140625 C12.58228672 9.76858447 7.90126699 8.45991583 2.9453125 7.52734375 C1 7 1 7 -2 5 C-9.24834236 4.62701497 -15.86323905 6.72996011 -22.56640625 9.2578125 C-25 10 -25 10 -27 9 C-25.94583321 8.17671701 -24.881178 7.36685679 -23.8125 6.5625 C-23.22082031 6.11003906 -22.62914063 5.65757812 -22.01953125 5.19140625 C-17.43129881 2.48461535 -12.36459193 2.87309599 -7.1875 2.9375 C-6.49462891 2.94201172 -5.80175781 2.94652344 -5.08789062 2.95117188 C-3.39188932 2.96286844 -1.69593297 2.98080076 0 3 C0 2.01 0 1.02 0 0 Z " fill="#712B24" transform="translate(130,162)"/>
<path d="M0 0 C2.76734851 2.76734851 2.82123459 5.24750576 3.5625 9.0625 C4.0657616 13.35706875 4.0657616 13.35706875 6 17 C6.04080783 18.99958364 6.04254356 21.00045254 6 23 C4.35 23 2.7 23 1 23 C0.10500818 20.27598126 -0.76613261 17.54790316 -1.625 14.8125 C-1.88023437 14.04357422 -2.13546875 13.27464844 -2.3984375 12.48242188 C-3.5069668 8.89509788 -4.1753087 6.72102774 -3.2734375 3.01171875 C-2 1 -2 1 0 0 Z " fill="#1E151A" transform="translate(200,221)"/>
<path d="M0 0 C2 0 2 0 3.8125 1.4375 C6.2265702 4.26541081 7.81924717 7.13765095 9.5625 10.40625 C12.15003587 15.07506472 15.09641708 19.52329434 18 24 C17.01 24.33 16.02 24.66 15 25 C14.01 23.68 13.02 22.36 12 21 C11.34 21.33 10.68 21.66 10 22 C10 21.34 10 20.68 10 20 C9.34 20 8.68 20 8 20 C4.61613777 15.8759179 3.4215505 12.32640978 2.4375 7.125 C1.91895527 4.60635418 1.05688272 2.34024031 0 0 Z " fill="#3D544A" transform="translate(179,189)"/>
<path d="M0 0 C2.62696231 0.44879766 5.25116893 0.90854114 7.875 1.375 C8.99455078 1.56449219 8.99455078 1.56449219 10.13671875 1.7578125 C15.7734375 2.7734375 15.7734375 2.7734375 18 5 C15.36 4.67 12.72 4.34 10 4 C10.66 4.33 11.32 4.66 12 5 C12 5.99 12 6.98 12 8 C9.36 7.67 6.72 7.34 4 7 C3.34 9.97 2.68 12.94 2 16 C0.68 15.67 -0.64 15.34 -2 15 C-1.34 10.05 -0.68 5.1 0 0 Z " fill="#6D613C" transform="translate(170,82)"/>
<path d="M0 0 C0.66 0 1.32 0 2 0 C2.33 9.57 2.66 19.14 3 29 C4.32 29.66 5.64 30.32 7 31 C5.68 31 4.36 31 3 31 C3 31.66 3 32.32 3 33 C1.02 33.495 1.02 33.495 -1 34 C-1 29.38 -1 24.76 -1 20 C-2.65 20 -4.3 20 -6 20 C-6 23.63 -6 27.26 -6 31 C-6.33 31 -6.66 31 -7 31 C-7 27.04 -7 23.08 -7 19 C-4.69 19 -2.38 19 0 19 C0 12.73 0 6.46 0 0 Z " fill="#D59E7B" transform="translate(87,116)"/>
<path d="M0 0 C5.81412795 0.54850264 11.16497418 1.7654465 16.77734375 3.37890625 C18.77588346 4.0448546 18.77588346 4.0448546 20 4 C20 6.64 20 9.28 20 12 C19.67 11.34 19.34 10.68 19 10 C16.43008185 9.19139919 16.43008185 9.19139919 13.375 8.5625 C8.61262806 7.4486278 4.40586005 6.10279684 0 4 C0 2.68 0 1.36 0 0 Z " fill="#DFA53A" transform="translate(199,92)"/>
<path d="M0 0 C8.68518048 0.40871438 16.69293749 2.61864208 25 5 C24.01 5.66 23.02 6.32 22 7 C21.67 7.99 21.34 8.98 21 10 C14.9490696 8.83445193 8.96533774 7.54656904 3 6 C4.32 5.67 5.64 5.34 7 5 C7 4.01 7 3.02 7 2 C4.69 1.67 2.38 1.34 0 1 C0 0.67 0 0.34 0 0 Z " fill="#184A48" transform="translate(175,85)"/>
<path d="M0 0 C-0.33 0.66 -0.66 1.32 -1 2 C-3.26232858 2.2575484 -5.5374882 2.4062817 -7.8125 2.5 C-13.70247646 2.71482201 -13.70247646 2.71482201 -19 5 C-21 6 -23 7 -25 8 C-24.01 8.66 -23.02 9.32 -22 10 C-29.42857143 12.42857143 -29.42857143 12.42857143 -33 11 C-32.67 10.01 -32.34 9.02 -32 8 C-31.01 8 -30.02 8 -29 8 C-28.67 7.01 -28.34 6.02 -28 5 C-20.12547523 -0.19959078 -9.1997071 -2.88183596 0 0 Z " fill="#914F31" transform="translate(129,150)"/>
<path d="M0 0 C0.77085937 0.433125 1.54171875 0.86625 2.3359375 1.3125 C3.33882812 1.869375 4.34171875 2.42625 5.375 3 C6.37273437 3.556875 7.37046875 4.11375 8.3984375 4.6875 C10.81195509 6.15014268 10.81195509 6.15014268 13 6 C12.34 5.67 11.68 5.34 11 5 C11.33 3.68 11.66 2.36 12 1 C16.43087162 4.61465843 17.66774499 7.27800623 18.54296875 12.9140625 C18.93119301 15.2908715 18.93119301 15.2908715 21 18 C21 18.99 21 19.98 21 21 C17.19968016 19.5197879 15.73912566 17.5130963 13.5625 14.125 C11.05766805 10.42127412 8.91499838 7.32783688 5 5 C3.68 5 2.36 5 1 5 C0.67 3.35 0.34 1.7 0 0 Z " fill="#A6873D" transform="translate(162,178)"/>
<path d="M0 0 C2.66315194 2.66315194 2.94426493 4.65344068 3.09765625 8.359375 C3.08605469 9.14828125 3.07445312 9.9371875 3.0625 10.75 C3.05347656 11.54921875 3.04445312 12.3484375 3.03515625 13.171875 C3.02355469 13.77515625 3.01195312 14.3784375 3 15 C2.29875 14.80664062 1.5975 14.61328125 0.875 14.4140625 C-4.73492134 12.874383 -10.35010447 11.38582343 -16 10 C-16 11.32 -16 12.64 -16 14 C-16.99 14 -17.98 14 -19 14 C-18.67 12.02 -18.34 10.04 -18 8 C-18.99 7.34 -19.98 6.68 -21 6 C-16.01155691 6.6099126 -11.39844654 7.63474435 -6.5625 9.0625 C-4.70818359 9.60583984 -4.70818359 9.60583984 -2.81640625 10.16015625 C-1.88699219 10.43730469 -0.95757812 10.71445313 0 11 C-0.12568359 10.06027344 -0.12568359 10.06027344 -0.25390625 9.1015625 C-0.35574219 8.28429687 -0.45757812 7.46703125 -0.5625 6.625 C-0.66691406 5.81289062 -0.77132812 5.00078125 -0.87890625 4.1640625 C-1 2 -1 2 0 0 Z " fill="#777955" transform="translate(215,82)"/>
<path d="M0 0 C-2.95820642 1.81309426 -5.95454165 3.52736064 -9 5.1875 C-14.22251537 8.05856241 -19.24324881 11.24046503 -24.27734375 14.42578125 C-27 16 -27 16 -29 16 C-29 16.66 -29 17.32 -29 18 C-30.8125 19.0625 -30.8125 19.0625 -33 20 C-33.99 19.67 -34.98 19.34 -36 19 C-7.16211122 -2.38737041 -7.16211122 -2.38737041 0 0 Z " fill="#732C25" transform="translate(112,161)"/>
<path d="M0 0 C1.32 0.33 2.64 0.66 4 1 C3.01 2.485 3.01 2.485 2 4 C1.83013885 6.66595635 1.76693949 9.21330702 1.8125 11.875 C1.81314453 12.58269531 1.81378906 13.29039062 1.81445312 14.01953125 C1.83931333 16.98618251 1.95873733 19.79428038 2.54296875 22.70703125 C3.054435 25.27310552 2.86713216 27.23005899 2.5 29.8125 C2.05815404 33.61573105 2.13051043 36.90365462 2.7421875 40.70703125 C3.31168384 45.77209717 3.06983057 50.91012742 3 56 C2.34 56 1.68 56 1 56 C0.09383235 43.46382951 -0.12461938 31.00319642 -0.0625 18.4375 C-0.05746671 16.63606898 -0.05290709 14.83463656 -0.04882812 13.03320312 C-0.03798636 8.68876677 -0.02082646 4.34439949 0 0 Z " fill="#3E1F29" transform="translate(76,190)"/>
<path d="M0 0 C1.98 0.66 3.96 1.32 6 2 C6 2.66 6 3.32 6 4 C6.81855469 4.38800781 7.63710937 4.77601562 8.48046875 5.17578125 C9.31191406 5.77777344 10.14335937 6.37976563 11 7 C11.48828125 10.35546875 11.48828125 10.35546875 11.3125 14.1875 C11.26738281 15.45980469 11.22226563 16.73210937 11.17578125 18.04296875 C11.11777344 19.01878906 11.05976563 19.99460937 11 21 C10.8453125 20.0409375 10.8453125 20.0409375 10.6875 19.0625 C10.460625 18.381875 10.23375 17.70125 10 17 C9.01 16.67 8.02 16.34 7 16 C4.70812577 13.83909001 3.09148404 12.23503451 2.8515625 8.99609375 C2.87992188 8.29613281 2.90828125 7.59617187 2.9375 6.875 C3.39426996 3.10012139 3.39426996 3.10012139 1.5 1 C1.005 0.67 0.51 0.34 0 0 Z " fill="#8F6C36" transform="translate(188,98)"/>
<path d="M0 0 C1.75 0.875 1.75 0.875 3.75 2.875 C3.8125 4.8125 3.8125 4.8125 2.75 6.875 C-1.21873594 8.97169068 -3.73438726 9.875 -8.25 9.875 C-8.625 7.125 -8.625 7.125 -8.25 3.875 C-3.64946381 -0.20274799 -3.64946381 -0.20274799 0 0 Z " fill="#AD563B" transform="translate(70.25,160.125)"/>
<path d="M0 0 C5.19209404 -0.21192221 9.126739 0.4087311 14 2 C14.33 4.64 14.66 7.28 15 10 C14.01 10 13.02 10 12 10 C12 9.01 12 8.02 12 7 C10.68 7 9.36 7 8 7 C8 6.34 8 5.68 8 5 C5.03 4.67 2.06 4.34 -1 4 C-0.67 2.68 -0.34 1.36 0 0 Z " fill="#335C4E" transform="translate(153,75)"/>
<path d="M0 0 C6.75 0.75 6.75 0.75 9 3 C9.26991906 5.68839385 9.08737357 8.29141936 9 11 C5.40608886 9.66511872 2.24509304 8.03977277 -1 6 C-0.67 4.02 -0.34 2.04 0 0 Z " fill="#0B3438" transform="translate(180,271)"/>
<path d="M0 0 C0.99 0.33 1.98 0.66 3 1 C4.1875 3.5625 4.1875 3.5625 5 6 C5.99 5.01 6.98 4.02 8 3 C8.6875 5.3125 8.6875 5.3125 9 8 C8.24807373 8.70588257 8.24807373 8.70588257 7.48095703 9.42602539 C6.99224121 9.94543701 6.50352539 10.46484863 6 11 C6.47036343 13.95019089 7.05604776 16.58553473 7.875 19.4375 C8.29751235 20.95470344 8.71188001 22.47420387 9.1171875 23.99609375 C9.30909668 24.66825928 9.50100586 25.3404248 9.69873047 26.03295898 C10.04513303 28.29468139 9.68664111 29.83590289 9 32 C8.16193384 29.06377536 7.32937556 26.12617933 6.5 23.1875 C6.26152344 22.35412109 6.02304688 21.52074219 5.77734375 20.66210938 C5.55175781 19.85966797 5.32617188 19.05722656 5.09375 18.23046875 C4.88427734 17.49207764 4.67480469 16.75368652 4.45898438 15.99291992 C4 14 4 14 4 11 C3.01 11 2.02 11 1 11 C1 10.34 1 9.68 1 9 C1.66 9 2.32 9 3 9 C1.68 6.36 0.36 3.72 -1 1 C-0.67 0.67 -0.34 0.34 0 0 Z " fill="#393C30" transform="translate(191,214)"/>
<path d="M0 0 C0.33 1.32 0.66 2.64 1 4 C1.78375 3.505 2.5675 3.01 3.375 2.5 C6 1 6 1 8 1 C7.34 2.65 6.68 4.3 6 6 C5.34 5.67 4.68 5.34 4 5 C1.61497875 6.15385899 1.61497875 6.15385899 -0.9375 7.8125 C-1.81277344 8.35519531 -2.68804687 8.89789063 -3.58984375 9.45703125 C-5.40534695 10.61930639 -7.20636986 11.80424657 -9 13 C-8.34 11.35 -7.68 9.7 -7 8 C-8.65 8 -10.3 8 -12 8 C-8.2064129 4.78119883 -4.34170523 2.3836813 0 0 Z " fill="#210D18" transform="translate(95,170)"/>
<path d="M0 0 C0.6875 2.0625 0.6875 2.0625 1 4 C-5.625 7 -5.625 7 -9 7 C-10.6875 5 -10.6875 5 -12 3 C-11.1875 1.0625 -11.1875 1.0625 -10 -1 C-5.95821645 -2.34726118 -3.96013719 -1.32004573 0 0 Z " fill="#181216" transform="translate(202,161)"/>
<path d="M0 0 C3.30705498 0.44094066 4.91377225 1.42755114 7 4 C7.73046875 6.48046875 7.73046875 6.48046875 8.1875 9.1875 C8.34605469 10.08855469 8.50460938 10.98960937 8.66796875 11.91796875 C8.77753906 12.60503906 8.88710937 13.29210937 9 14 C7.70684939 13.04367001 6.41553147 12.08486149 5.125 11.125 C4.40570313 10.59132812 3.68640625 10.05765625 2.9453125 9.5078125 C1 8 1 8 -1 6 C-1.1875 3.4375 -1.1875 3.4375 -1 1 C-0.67 0.67 -0.34 0.34 0 0 Z " fill="#EFA813" transform="translate(151,168)"/>
<path d="M0 0 C0.33 0.99 0.66 1.98 1 3 C2.65 2.67 4.3 2.34 6 2 C5.34 6.62 4.68 11.24 4 16 C2.68 15.67 1.36 15.34 0 15 C-1.33257403 4.44191344 -1.33257403 4.44191344 0 0 Z " fill="#60312C" transform="translate(128,42)"/>
<path d="M0 0 C3.58375776 3.58375776 3.92387761 9.13500141 4.125 14.0625 C4.08375 14.701875 4.0425 15.34125 4 16 C-0.875 14.125 -0.875 14.125 -2 13 C-2.24661958 8.06760838 -2.25068913 4.50137826 0 0 Z " fill="#692923" transform="translate(146,105)"/>
<path d="M0 0 C19.64130514 -0.44865925 19.64130514 -0.44865925 28 2 C28.33 2.66 28.66 3.32 29 4 C25.98968256 4.93423645 25.13349732 5.04449911 22 4 C20.47129268 3.81084748 18.93764111 3.66000326 17.40234375 3.53515625 C16.07686523 3.41817383 16.07686523 3.41817383 14.72460938 3.29882812 C12.8629822 3.14097466 11.00099223 2.98734411 9.13867188 2.83789062 C8.25630859 2.75861328 7.37394531 2.67933594 6.46484375 2.59765625 C5.656521 2.53070557 4.84819824 2.46375488 4.01538086 2.39477539 C2 2 2 2 0 0 Z " fill="#1B0B0C" transform="translate(112,152)"/>
<path d="M0 0 C3.465 1.98 3.465 1.98 7 4 C6.67 6.31 6.34 8.62 6 11 C3.69 10.67 1.38 10.34 -1 10 C-0.67 6.7 -0.34 3.4 0 0 Z " fill="#75603A" transform="translate(174,90)"/>
<path d="M0 0 C2.67927341 4.01891012 2.15601248 6.24161923 2 11 C4.64 11 7.28 11 10 11 C10 12.65 10 14.3 10 16 C9.67 15.01 9.34 14.02 9 13 C8.67 13.66 8.34 14.32 8 15 C6.741875 14.87625 5.48375 14.7525 4.1875 14.625 C3.47980469 14.55539063 2.77210938 14.48578125 2.04296875 14.4140625 C0 14 0 14 -3 12 C-3.40843923 9.28796348 -3.13336867 6.7562858 -3 4 C-2.67 4 -2.34 4 -2 4 C-1.67 6.31 -1.34 8.62 -1 11 C-0.34 11 0.32 11 1 11 C0.67 7.37 0.34 3.74 0 0 Z " fill="#12282E" transform="translate(153,82)"/>
<path d="M0 0 C3.96 0.33 7.92 0.66 12 1 C12 2.32 12 3.64 12 5 C7.71 5 3.42 5 -1 5 C-0.67 3.35 -0.34 1.7 0 0 Z " fill="#110811" transform="translate(112,139)"/>
<path d="M0 0 C0.33 0 0.66 0 1 0 C1 3.3 1 6.6 1 10 C3.97 10.495 3.97 10.495 7 11 C7 11.66 7 12.32 7 13 C4.69 12.34 2.38 11.68 0 11 C-0.33 13.31 -0.66 15.62 -1 18 C-2.65 18.33 -4.3 18.66 -6 19 C-5.67 16.69 -5.34 14.38 -5 12 C-3.35 11.34 -1.7 10.68 0 10 C0 6.7 0 3.4 0 0 Z " fill="#280F16" transform="translate(129,102)"/>
<path d="M0 0 C1.32 0.33 2.64 0.66 4 1 C3.01 1 2.02 1 1 1 C1.12375 2.0828125 1.12375 2.0828125 1.25 3.1875 C0.92256852 6.87110419 -0.46093936 8.38626111 -3 11 C-3.66 11 -4.32 11 -5 11 C-5.33 11.99 -5.66 12.98 -6 14 C-6.33 14 -6.66 14 -7 14 C-7 12.02 -7 10.04 -7 8 C-7.99 8.495 -7.99 8.495 -9 9 C-11.3329866 9.04022391 -13.66706666 9.04320247 -16 9 C-12.84274244 6.89516163 -11.60149717 6.69111983 -7.9375 6.4375 C-4.33239957 6.22366554 -4.33239957 6.22366554 -1 5 C-0.34444881 2.47266765 -0.34444881 2.47266765 0 0 Z " fill="#082B2E" transform="translate(137,239)"/>
<path d="M0 0 C3.72706259 0.85190002 5.46882675 2.26698251 7.5 5.375 C15.54489142 19.36388763 15.54489142 19.36388763 14.55126953 24.17089844 C14.36935059 24.77450195 14.18743164 25.37810547 14 26 C12.82905995 23.2100561 11.66309073 20.41821403 10.5 17.625 C10.16613281 16.8309375 9.83226562 16.036875 9.48828125 15.21875 C9.17246094 14.45820312 8.85664063 13.69765625 8.53125 12.9140625 C8.23798828 12.2123291 7.94472656 11.5105957 7.64257812 10.78759766 C7 9 7 9 7 7 C6.401875 6.95875 5.80375 6.9175 5.1875 6.875 C3 6 3 6 1.25 2.9375 C0.8375 1.968125 0.425 0.99875 0 0 Z " fill="#6C6B57" transform="translate(199,48)"/>
<path d="M0 0 C1.98 0.99 3.96 1.98 6 3 C5.34 6.63 4.68 10.26 4 14 C3.67 14 3.34 14 3 14 C2.67 12.35 2.34 10.7 2 9 C1.34 9.99 0.68 10.98 0 12 C0 8.04 0 4.08 0 0 Z " fill="#DAA63D" transform="translate(209,110)"/>
<path d="M0 0 C2.31 0.33 4.62 0.66 7 1 C7 1.66 7 2.32 7 3 C8.32 3 9.64 3 11 3 C10.67 4.32 10.34 5.64 10 7 C6.7 6.67 3.4 6.34 0 6 C0 4.02 0 2.04 0 0 Z " fill="#0B4949" transform="translate(154,79)"/>
<path d="M0 0 C0.33 0 0.66 0 1 0 C0.20376222 8.75861562 -1.42197613 17.35560508 -3 26 C-4.5703125 24.31640625 -4.5703125 24.31640625 -6 22 C-5.7421875 19.58984375 -5.7421875 19.58984375 -4.875 16.9375 C-4.57722656 15.98101562 -4.27945313 15.02453125 -3.97265625 14.0390625 C-3.65167969 13.03617188 -3.33070313 12.03328125 -3 11 C-2.42782321 8.94016355 -1.8648332 6.87774588 -1.3125 4.8125 C-0.875 3.20833333 -0.4375 1.60416667 0 0 Z " fill="#4A3A27" transform="translate(215,113)"/>
<path d="M0 0 C4.14219273 5.27188165 5.25145396 8.42148627 5.125 15.25 C5.10695312 16.51328125 5.08890625 17.7765625 5.0703125 19.078125 C5.04710937 20.04234375 5.02390625 21.0065625 5 22 C3.68 21.67 2.36 21.34 1 21 C1.66 21 2.32 21 3 21 C3.042721 19.33388095 3.04063832 17.66617115 3 16 C2.67 15.67 2.34 15.34 2 15 C1.6011581 13.23869087 1.25536826 11.46520765 0.9375 9.6875 C0.76089844 8.72199219 0.58429688 7.75648437 0.40234375 6.76171875 C0 4 0 4 0 0 Z " fill="#30554C" transform="translate(210,71)"/>
<path d="M0 0 C4.97093824 0.41153737 9.44508386 0.79600832 14 3 C11 4 11 4 8 4 C8 4.99 8 5.98 8 7 C5.69 6.67 3.38 6.34 1 6 C0.67 4.02 0.34 2.04 0 0 Z " fill="#656A48" transform="translate(174,83)"/>
<path d="M0 0 C1.65 0 3.3 0 5 0 C5.33 0.66 5.66 1.32 6 2 C8.32156597 2.40729228 10.6568787 2.74438677 13 3 C13 3.33 13 3.66 13 4 C6.00998353 5.09751783 -0.97234063 6.17321655 -8 7 C-7.34 6.34 -6.68 5.68 -6 5 C-4.68 5 -3.36 5 -2 5 C-1.34 3.35 -0.68 1.7 0 0 Z " fill="#0B0F18" transform="translate(121,242)"/>
<path d="M0 0 C3.27346607 3.09652196 5.97509956 5.95019912 8 10 C8 10.99 8 11.98 8 13 C4.62772951 11.60632076 3.09506287 10.15724701 1.1875 7.0625 C0.74792969 6.37285156 0.30835938 5.68320313 -0.14453125 4.97265625 C-1 3 -1 3 0 0 Z " fill="#CE9637" transform="translate(175,186)"/>
<path d="M0 0 C0.35338623 2.96844435 0.5417682 5.15598218 -1.11328125 7.734375 C-2.35503168 9.20348819 -3.67337918 10.60704814 -5 12 C-6.32 11.34 -7.64 10.68 -9 10 C-7.625 7.5 -7.625 7.5 -6 5 C-5.34 5 -4.68 5 -4 5 C-4 4.34 -4 3.68 -4 3 C-1.34615385 0 -1.34615385 0 0 0 Z " fill="#E19D17" transform="translate(172,231)"/>
<path d="M0 0 C1.67542976 0.28604898 3.34385343 0.61781233 5 1 C5 3 5 5 5 7 C3.35 6.67 1.7 6.34 0 6 C-0.33 6.99 -0.66 7.98 -1 9 C-1.66 8.67 -2.32 8.34 -3 8 C-1.125 1.125 -1.125 1.125 0 0 Z " fill="#364E47" transform="translate(126,252)"/>
<path d="M0 0 C10.74259681 5.0022779 10.74259681 5.0022779 14 9 C13.45472656 8.80664062 12.90945312 8.61328125 12.34765625 8.4140625 C6.9561948 6.55239547 1.59078274 5.12344334 -4 4 C-2.68 3.67 -1.36 3.34 0 3 C0 2.01 0 1.02 0 0 Z " fill="#863722" transform="translate(135,165)"/>
<path d="M0 0 C0.99 0 1.98 0 3 0 C3.02578125 0.62648437 3.0515625 1.25296875 3.078125 1.8984375 C3.13484375 2.71570313 3.1915625 3.53296875 3.25 4.375 C3.29640625 5.18710938 3.3428125 5.99921875 3.390625 6.8359375 C3.7922092 9.18838927 3.7922092 9.18838927 6.046875 10.2890625 C6.69140625 10.52367187 7.3359375 10.75828125 8 11 C6.68 11 5.36 11 4 11 C4 11.66 4 12.32 4 13 C2.68 13.33 1.36 13.66 0 14 C0 9.38 0 4.76 0 0 Z " fill="#D9956A" transform="translate(86,136)"/>
<path d="M0 0 C3.84132871 6.96436018 3.14561978 15.24979175 3 23 C1.63803575 20.33722092 0.47943141 17.97247474 0 15 C0.33 14.01 0.66 13.02 1 12 C-0.98 12.99 -0.98 12.99 -3 14 C-2.5359375 13.0409375 -2.5359375 13.0409375 -2.0625 12.0625 C-0.68064597 8.07950896 -0.3463457 4.18349151 0 0 Z " fill="#2B1218" transform="translate(146,88)"/>
<path d="M0 0 C-2.31 1.32 -4.62 2.64 -7 4 C-6.01 4.66 -5.02 5.32 -4 6 C-11.42857143 8.42857143 -11.42857143 8.42857143 -15 7 C-14 4 -14 4 -11.34765625 2.578125 C-10.26355469 2.13984375 -9.17945312 1.7015625 -8.0625 1.25 C-6.98097656 0.80140625 -5.89945313 0.3528125 -4.78515625 -0.109375 C-2 -1 -2 -1 0 0 Z " fill="#5B291A" transform="translate(111,154)"/>
<path d="M0 0 C1.65 0.33 3.3 0.66 5 1 C5 5.95 5 10.9 5 16 C4.67 16 4.34 16 4 16 C4 13.03 4 10.06 4 7 C2.68 6.34 1.36 5.68 0 5 C-0.8125 2.9375 -0.8125 2.9375 -1 1 C-0.67 0.67 -0.34 0.34 0 0 Z " fill="#19312E" transform="translate(152,117)"/>
<path d="M0 0 C0.66 1.32 1.32 2.64 2 4 C-0.64 4.33 -3.28 4.66 -6 5 C-6 5.99 -6 6.98 -6 8 C-7.32 8 -8.64 8 -10 8 C-10 7.34 -10 6.68 -10 6 C-10.66 6 -11.32 6 -12 6 C-12 5.34 -12 4.68 -12 4 C-7.8803623 2.70756464 -4.33168317 1.73747375 0 2 C0 1.34 0 0.68 0 0 Z " fill="#0E1D21" transform="translate(136,275)"/>
<path d="M0 0 C4.37859255 0.50522222 6.81651224 3.17827222 10 6 C9.01 6.495 9.01 6.495 8 7 C7.67 7.99 7.34 8.98 7 10 C3.60582235 6.87378374 1.3937282 4.43458973 0 0 Z " fill="#2D251C" transform="translate(164,182)"/>
<path d="M0 0 C4.60125265 1.31464361 8.22421843 3.03331448 12 6 C12 6.99 12 7.98 12 9 C8.4213696 7.34832443 5.25179812 5.21713508 2 3 C2.99 4.485 2.99 4.485 4 6 C3.01 6 2.02 6 1 6 C0 5 0 5 -0.0625 2.4375 C-0.041875 1.633125 -0.02125 0.82875 0 0 Z " fill="#121213" transform="translate(147,157)"/>
<path d="M0 0 C1.32 0 2.64 0 4 0 C4 0.66 4 1.32 4 2 C4.75925781 1.97679687 5.51851563 1.95359375 6.30078125 1.9296875 C7.29464844 1.91164062 8.28851563 1.89359375 9.3125 1.875 C10.29863281 1.85179687 11.28476563 1.82859375 12.30078125 1.8046875 C15 2 15 2 18 4 C12.06 4 6.12 4 0 4 C0 2.68 0 1.36 0 0 Z " fill="#D9773A" transform="translate(113,155)"/>
<path d="M0 0 C1.66611905 -0.042721 3.33382885 -0.04063832 5 0 C6 1 6 1 6.0625 4.0625 C6.041875 5.031875 6.02125 6.00125 6 7 C3.69 6.34 1.38 5.68 -1 5 C-0.67 3.35 -0.34 1.7 0 0 Z " fill="#675438" transform="translate(151,107)"/>
<path d="M0 0 C2 2 2 2 2.1953125 3.9453125 C2.13020833 5.96354167 2.06510417 7.98177083 2 10 C0.35 9.67 -1.3 9.34 -3 9 C-3.75 6.75 -3.75 6.75 -4 4 C-2.0625 1.6875 -2.0625 1.6875 0 0 Z " fill="#10060F" transform="translate(200,221)"/>
<path d="M0 0 C6.73802154 2.31017881 10.30828913 5.98387859 14 12 C8.70684048 10.51129888 4.73092904 6.91398865 1 3 C0.67 2.01 0.34 1.02 0 0 Z " fill="#1E4D3F" transform="translate(157,171)"/>
<path d="M0 0 C-0.19335938 0.64066406 -0.38671875 1.28132813 -0.5859375 1.94140625 C-2.0940748 6.95110985 -3.57717786 11.96539857 -5 17 C-6.9265164 13.82521643 -7.1811358 12.09775396 -6.3125 8.5 C-4.14198929 0 -4.14198929 0 0 0 Z " fill="#432322" transform="translate(153,75)"/>
<path d="M0 0 C0.66 0.33 1.32 0.66 2 1 C2.31241371 3.54941373 2.51303421 6.00361513 2.625 8.5625 C2.66367188 9.27341797 2.70234375 9.98433594 2.7421875 10.71679688 C2.83671783 12.47742425 2.91945817 14.23867728 3 16 C-0.17862213 12.51417376 -1.5187449 10.50074469 -1.3125 5.75 C-1.28800781 4.87859375 -1.26351562 4.0071875 -1.23828125 3.109375 C-1 1 -1 1 0 0 Z " fill="#CB9722" transform="translate(159,258)"/>
<path d="M0 0 C0.66 0.33 1.32 0.66 2 1 C3.47180796 5.82425944 4.25376143 9.92477148 4 15 C3.34 15 2.68 15 2 15 C1.566875 13.9275 1.13375 12.855 0.6875 11.75 C-0.55321513 8.83727354 -1.95070379 6.43963834 -4 4 C-2.02 4.99 -2.02 4.99 0 6 C0 5.34 0 4.68 0 4 C0 2.68 0 1.36 0 0 Z " fill="#896A25" transform="translate(158,174)"/>
<path d="M0 0 C2.31 0 4.62 0 7 0 C7 2.64 7 5.28 7 8 C6.67 7.34 6.34 6.68 6 6 C3.6859378 5.26924352 1.35171131 4.59861742 -1 4 C-0.67 2.68 -0.34 1.36 0 0 Z " fill="#E4B14D" transform="translate(212,96)"/>
<path d="M0 0 C1.2065625 0.0309375 1.2065625 0.0309375 2.4375 0.0625 C2.81968767 1.71864657 3.15145102 3.38707024 3.4375 5.0625 C2.4375 6.0625 2.4375 6.0625 -0.125 6.125 C-1.3315625 6.0940625 -1.3315625 6.0940625 -2.5625 6.0625 C-2.94468767 4.40635343 -3.27645102 2.73792976 -3.5625 1.0625 C-2.5625 0.0625 -2.5625 0.0625 0 0 Z " fill="#1E534C" transform="translate(214.5625,262.9375)"/>
<path d="M0 0 C-0.56847656 0.12117187 -1.13695313 0.24234375 -1.72265625 0.3671875 C-5.4773589 1.18206454 -9.19351926 2.0213441 -12.875 3.125 C-16 4 -16 4 -19 4 C-19.33 5.65 -19.66 7.3 -20 9 C-20.33 9 -20.66 9 -21 9 C-21 7.02 -21 5.04 -21 3 C-6.13953488 -1.75415282 -6.13953488 -1.75415282 0 0 Z " fill="#0C2829" transform="translate(121,249)"/>
<path d="M0 0 C3.43595166 1.52708963 6.11912454 3.59927045 9 6 C8.67 7.65 8.34 9.3 8 11 C2.20985556 6.56499575 2.20985556 6.56499575 1.1875 3.8125 C1.125625 3.214375 1.06375 2.61625 1 2 C0.67 1.34 0.34 0.68 0 0 Z " fill="#1F362F" transform="translate(148,159)"/>
<path d="M0 0 C1.62580966 0.11398665 3.25067157 0.24155659 4.875 0.375 C5.77992188 0.44460937 6.68484375 0.51421875 7.6171875 0.5859375 C10 1 10 1 12 3 C12 4.32 12 5.64 12 7 C9.03 6.67 6.06 6.34 3 6 C4.32 5.67 5.64 5.34 7 5 C7 4.01 7 3.02 7 2 C4.69 1.67 2.38 1.34 0 1 C0 0.67 0 0.34 0 0 Z " fill="#2A4B3D" transform="translate(175,85)"/>
<path d="M0 0 C3.15922602 1.57961301 3.6261107 4.60093914 4.90234375 7.7734375 C6.01185716 10.02405188 7.22442137 11.26994903 9 13 C9 13.66 9 14.32 9 15 C8.01 15 7.02 15 6 15 C5.67 14.34 5.34 13.68 5 13 C4.01 12.67 3.02 12.34 2 12 C1.34 8.04 0.68 4.08 0 0 Z " fill="#CE9827" transform="translate(160,176)"/>
<path d="M0 0 C0.33 0 0.66 0 1 0 C1.05406122 1.93719378 1.09282025 3.87481921 1.125 5.8125 C1.14820313 6.89144531 1.17140625 7.97039062 1.1953125 9.08203125 C1 12 1 12 -1 15 C-3.00521329 9.54136383 -3.13889782 6.62867848 -1 1 C-0.67 0.67 -0.34 0.34 0 0 Z " fill="#2B2225" transform="translate(210,134)"/>
<path d="M0 0 C5.28 0 10.56 0 16 0 C15.67 0.99 15.34 1.98 15 3 C10.05 2.67 5.1 2.34 0 2 C0 1.34 0 0.68 0 0 Z " fill="#C36030" transform="translate(117,155)"/>
<path d="M0 0 C3.82946843 1.45255699 5.12050295 3.42895561 7 7 C5.68 8.32 4.36 9.64 3 11 C2.06576355 7.98968256 1.95550089 7.13349732 3 4 C1.35 4 -0.3 4 -2 4 C-1.34 2.68 -0.68 1.36 0 0 Z " fill="#CC951E" transform="translate(149,174)"/>
<path d="M0 0 C0.33 1.32 0.66 2.64 1 4 C1.78375 3.505 2.5675 3.01 3.375 2.5 C6 1 6 1 8 1 C7.34 2.65 6.68 4.3 6 6 C5.34 5.67 4.68 5.34 4 5 C2.27409017 5.80699359 2.27409017 5.80699359 0.5 7 C-1.34375 8.1875 -1.34375 8.1875 -3 9 C-3.66 8.67 -4.32 8.34 -5 8 C-4.01 7.01 -3.02 6.02 -2 5 C-2.33 4.01 -2.66 3.02 -3 2 C-2.01 1.34 -1.02 0.68 0 0 Z " fill="#251119" transform="translate(95,170)"/>
<path d="M0 0 C-0.969375 0.5775 -1.93875 1.155 -2.9375 1.75 C-6.09469292 3.64792862 -6.09469292 3.64792862 -6.875 6.25 C-6.91625 6.8275 -6.9575 7.405 -7 8 C-8.32 8 -9.64 8 -11 8 C-11 5.1875 -11 5.1875 -10 2 C-6.87492865 0.06314259 -3.43782724 -1.71891362 0 0 Z " fill="#381F1E" transform="translate(71,169)"/>
<path d="M0 0 C0.66 0 1.32 0 2 0 C1.58846263 4.97093824 1.20399168 9.44508386 -1 14 C-2.32 13.67 -3.64 13.34 -5 13 C-5 12.01 -5 11.02 -5 10 C-4.34 10 -3.68 10 -3 10 C-2.01 6.7 -1.02 3.4 0 0 Z " fill="#091218" transform="translate(165,85)"/>
<path d="M0 0 C0.66 0 1.32 0 2 0 C2 4.62 2 9.24 2 14 C1.67 12.68 1.34 11.36 1 10 C0.01 9.67 -0.98 9.34 -2 9 C-2 7.68 -2 6.36 -2 5 C-1.34 5 -0.68 5 0 5 C0 3.35 0 1.7 0 0 Z " fill="#A36F28" transform="translate(197,105)"/>
<path d="M0 0 C2.64 0.33 5.28 0.66 8 1 C8 2.32 8 3.64 8 5 C3.545 4.01 3.545 4.01 -1 3 C-0.67 2.01 -0.34 1.02 0 0 Z " fill="#0E3438" transform="translate(152,98)"/>
<path d="M0 0 C1.65 0 3.3 0 5 0 C5.33 1.65 5.66 3.3 6 5 C4.125 5.625 4.125 5.625 2 6 C1.34 5.34 0.68 4.68 0 4 C0 2.68 0 1.36 0 0 Z " fill="#C26A33" transform="translate(113,223)"/>
<path d="M0 0 C0.66 0.33 1.32 0.66 2 1 C0.37660195 2.70884005 -1.29319053 4.37446717 -3 6 C-3.66 6 -4.32 6 -5 6 C-5 6.66 -5 7.32 -5 8 C-6.8125 9.0625 -6.8125 9.0625 -9 10 C-9.99 9.67 -10.98 9.34 -12 9 C-8.04 6.03 -4.08 3.06 0 0 Z " fill="#803728" transform="translate(88,171)"/>
<path d="M0 0 C3.465 1.485 3.465 1.485 7 3 C7 3.66 7 4.32 7 5 C5.34385343 5.38218767 3.67542976 5.71395102 2 6 C1.67 5.67 1.34 5.34 1 5 C0.34 5.66 -0.32 6.32 -1 7 C-1.04254356 5.00045254 -1.04080783 2.99958364 -1 1 C-0.67 0.67 -0.34 0.34 0 0 Z " fill="#204B3F" transform="translate(181,94)"/>
<path d="M0 0 C0.33 0 0.66 0 1 0 C1.06058594 1.07121094 1.12117188 2.14242187 1.18359375 3.24609375 C1.26798537 4.64324391 1.35263406 6.04037857 1.4375 7.4375 C1.47681641 8.14455078 1.51613281 8.85160156 1.55664062 9.58007812 C1.47624438 13.08690419 1.47624438 13.08690419 3 16 C3.04063832 17.66617115 3.042721 19.33388095 3 21 C2.01 20.67 1.02 20.34 0 20 C0 13.4 0 6.8 0 0 Z " fill="#D08E6C" transform="translate(69,140)"/>
<path d="M0 0 C4.02992782 0.55312735 8.02022924 1.1558062 12 2 C11.34 3.32 10.68 4.64 10 6 C6.7 4.35 3.4 2.7 0 1 C0 0.67 0 0.34 0 0 Z " fill="#261513" transform="translate(109,120)"/>
<path d="M0 0 C3.3 0.33 6.6 0.66 10 1 C9.67 3.64 9.34 6.28 9 9 C8.67 8.01 8.34 7.02 8 6 C7.34 6 6.68 6 6 6 C6 5.01 6 4.02 6 3 C4.02 2.34 2.04 1.68 0 1 C0 0.67 0 0.34 0 0 Z " fill="#29534F" transform="translate(155,84)"/>
<path d="M0 0 C4.10839064 1.45002023 7.50344613 3.3979134 11 6 C11 6.66 11 7.32 11 8 C11.99 8.33 12.98 8.66 14 9 C14 9.66 14 10.32 14 11 C12.0625 10.6875 12.0625 10.6875 10 10 C9.67 9.01 9.34 8.02 9 7 C6.91053663 5.3618362 6.91053663 5.3618362 4.4375 3.875 C2.94436098 2.9385852 1.46100052 1.98580641 0 1 C0 0.67 0 0.34 0 0 Z " fill="#4F4E4D" transform="translate(157,161)"/>
<path d="M0 0 C0.99 0.33 1.98 0.66 3 1 C3 4.96 3 8.92 3 13 C2.34 13 1.68 13 1 13 C0.67 8.71 0.34 4.42 0 0 Z " fill="#4E524C" transform="translate(153,123)"/>
<path d="M0 0 C3.49844386 0.63389235 5.84086876 2.05177694 8.75 4.0625 C9.94882813 4.88427734 9.94882813 4.88427734 11.171875 5.72265625 C12.07679688 6.35494141 12.07679688 6.35494141 13 7 C10 8 10 8 6 8 C5.9071875 7.1028125 5.9071875 7.1028125 5.8125 6.1875 C4.67894758 3.13562809 2.79112005 2.5029108 0 1 C0 0.67 0 0.34 0 0 Z " fill="#E1B14A" transform="translate(193,101)"/>
<path d="M0 0 C1.32 0.33 2.64 0.66 4 1 C4 2.98 4 4.96 4 7 C2.68 7.33 1.36 7.66 0 8 C0 5.36 0 2.72 0 0 Z " fill="#B98D34" transform="translate(170,82)"/>
<path d="M0 0 C2.31 0.33 4.62 0.66 7 1 C7 1.66 7 2.32 7 3 C7.66 3.33 8.32 3.66 9 4 C7.68 4 6.36 4 5 4 C5 5.32 5 6.64 5 8 C4.01 8 3.02 8 2 8 C2.33 6.02 2.66 4.04 3 2 C2.01 1.34 1.02 0.68 0 0 Z " fill="#726D44" transform="translate(194,88)"/>
<path d="M0 0 C5 2 5 2 6.1796875 4.05859375 C6.40914062 4.84363281 6.63859375 5.62867188 6.875 6.4375 C7.11992187 7.21996094 7.36484375 8.00242187 7.6171875 8.80859375 C8 11 8 11 7 14 C4.69 9.38 2.38 4.76 0 0 Z " fill="#E2BE63" transform="translate(204,50)"/>
<path d="M0 0 C3.3125 0.75 3.3125 0.75 6 2 C5.34 3.32 4.68 4.64 4 6 C4 5.34 4 4.68 4 4 C1.03 4 -1.94 4 -5 4 C-2.875 1.875 -2.875 1.875 0 0 Z " fill="#102629" transform="translate(131,267)"/>
<path d="M0 0 C0.33 0.66 0.66 1.32 1 2 C1.66 2 2.32 2 3 2 C3 3.65 3 5.3 3 7 C0.5625 6.25 0.5625 6.25 -2 5 C-2.8125 2.875 -2.8125 2.875 -3 1 C-2.01 0.67 -1.02 0.34 0 0 Z " fill="#722C2E" transform="translate(147,114)"/>
<path d="M0 0 C0.66 0 1.32 0 2 0 C2.39253254 4.44870215 1.15305957 7.14243493 -1 11 C-1.33 11 -1.66 11 -2 11 C-2.25 3.375 -2.25 3.375 0 0 Z " fill="#0C2E2E" transform="translate(165,96)"/>
<path d="M0 0 C0.66 0.33 1.32 0.66 2 1 C1.67 2.65 1.34 4.3 1 6 C1.99 6.33 2.98 6.66 4 7 C3.01 7.33 2.02 7.66 1 8 C-0.98 5.69 -2.96 3.38 -5 1 C-2.525 1.495 -2.525 1.495 0 2 C0 1.34 0 0.68 0 0 Z " fill="#25241F" transform="translate(172,177)"/>
<path d="M0 0 C0.66 0.33 1.32 0.66 2 1 C2.6328125 3.28515625 2.6328125 3.28515625 3.125 6.0625 C3.29257813 6.98160156 3.46015625 7.90070313 3.6328125 8.84765625 C3.75398437 9.55792969 3.87515625 10.26820313 4 11 C2.02 9.68 0.04 8.36 -2 7 C-1.34 4.69 -0.68 2.38 0 0 Z " fill="#E8A31F" transform="translate(156,171)"/>
<path d="M0 0 C2.125 0.375 2.125 0.375 4 1 C2.9024777 3.99324263 2.32317108 4.84610901 -0.625 6.25 C-1.40875 6.4975 -2.1925 6.745 -3 7 C-2.25 2.25 -2.25 2.25 0 0 Z " fill="#12050F" transform="translate(98,168)"/>
<path d="M0 0 C-1 3 -1 3 -3.4375 4.75 C-4.7059375 5.36875 -4.7059375 5.36875 -6 6 C-6.66 5.67 -7.32 5.34 -8 5 C-7.625 3.0625 -7.625 3.0625 -7 1 C-4.53721199 -0.231394 -2.7204945 -0.07159196 0 0 Z " fill="#B95632" transform="translate(129,166)"/>
<path d="M0 0 C1.65 0.33 3.3 0.66 5 1 C5.33 3.64 5.66 6.28 6 9 C4.5 7.6875 4.5 7.6875 3 6 C3 5.01 3 4.02 3 3 C1.68 3.33 0.36 3.66 -1 4 C-0.67 2.68 -0.34 1.36 0 0 Z " fill="#9E7B42" transform="translate(199,158)"/>
<path d="M0 0 C2.31 0 4.62 0 7 0 C7 0.66 7 1.32 7 2 C7.99 2.33 8.98 2.66 10 3 C8.02 3 6.04 3 4 3 C3.67 3.66 3.34 4.32 3 5 C3 4.34 3 3.68 3 3 C2.01 3 1.02 3 0 3 C0 2.01 0 1.02 0 0 Z " fill="#C1643D" transform="translate(121,145)"/>
<path d="M0 0 C1.98 0.66 3.96 1.32 6 2 C7.15837626 6.05431692 6.83691257 8.21812119 5 12 C4.34 11.67 3.68 11.34 3 11 C3.061875 9.741875 3.12375 8.48375 3.1875 7.1875 C3.23632922 3.83041021 3.23632922 3.83041021 1.5 1 C1.005 0.67 0.51 0.34 0 0 Z " fill="#716B45" transform="translate(188,98)"/>
<path d="M0 0 C2.4375 0.375 2.4375 0.375 5 1 C5.33 1.66 5.66 2.32 6 3 C5.67 3.99 5.34 4.98 5 6 C3.68 5.67 2.36 5.34 1 5 C0.67 3.35 0.34 1.7 0 0 Z " fill="#936E33" transform="translate(175,92)"/>
<path d="M0 0 C0.33 0 0.66 0 1 0 C1 2.97 1 5.94 1 9 C1.99 9 2.98 9 4 9 C4 9.99 4 10.98 4 12 C2.35 12 0.7 12 -1 12 C-0.67 8.04 -0.34 4.08 0 0 Z " fill="#CB972A" transform="translate(150,185)"/>
<path d="M0 0 C1.65 0 3.3 0 5 0 C4.67 2.31 4.34 4.62 4 7 C3.34 7 2.68 7 2 7 C2 6.01 2 5.02 2 4 C1.34 4 0.68 4 0 4 C0 2.68 0 1.36 0 0 Z " fill="#435C42" transform="translate(147,178)"/>
<path d="M0 0 C1.89551022 -0.05441656 3.7914792 -0.09298035 5.6875 -0.125 C6.74324219 -0.14820313 7.79898438 -0.17140625 8.88671875 -0.1953125 C12.02251859 0.00141271 14.17645373 0.66942346 17 2 C16.67 2.66 16.34 3.32 16 4 C14.5459375 3.5359375 14.5459375 3.5359375 13.0625 3.0625 C8.76335509 1.82032903 4.44657366 1.38315147 0 1 C0 0.67 0 0.34 0 0 Z " fill="#3B3027" transform="translate(128,152)"/>
<path d="M0 0 C0.66 0.33 1.32 0.66 2 1 C2.20140476 4.62528568 1.85776765 6.86501708 0 10 C-0.66 10 -1.32 10 -2 10 C-1.125 2.25 -1.125 2.25 0 0 Z " fill="#0D3E3D" transform="translate(163,132)"/>
<path d="M0 0 C3.91402949 1.26941497 5.79072873 2.51167694 8 6 C7.67 6.66 7.34 7.32 7 8 C3.70851757 6.86500606 3.0040131 6.00716624 1.25 2.875 C0.8375 1.92625 0.425 0.9775 0 0 Z " fill="#3F322A" transform="translate(199,48)"/>
<path d="M0 0 C2.97 0.33 5.94 0.66 9 1 C9.33 1.99 9.66 2.98 10 4 C7.69 4 5.38 4 3 4 C3 3.34 3 2.68 3 2 C2.01 1.34 1.02 0.68 0 0 Z " fill="#52452F" transform="translate(125,148)"/>
<path d="M0 0 C3.29148243 1.13499394 3.9959869 1.99283376 5.75 5.125 C6.1625 6.07375 6.575 7.0225 7 8 C5.1875 7.8125 5.1875 7.8125 3 7 C0 2.82142857 0 2.82142857 0 0 Z " fill="#274C42" transform="translate(190,206)"/>
<path d="M0 0 C-3.24509304 2.03977277 -6.40608886 3.66511872 -10 5 C-10 4.01 -10 3.02 -10 2 C-3.375 -1.125 -3.375 -1.125 0 0 Z " fill="#652A1E" transform="translate(112,161)"/>
<path d="M0 0 C2.31 0 4.62 0 7 0 C6.34 1.65 5.68 3.3 5 5 C4.01 4.67 3.02 4.34 2 4 C2 3.34 2 2.68 2 2 C1.34 2 0.68 2 0 2 C0 1.34 0 0.68 0 0 Z " fill="#EAAB36" transform="translate(206,95)"/>
<path d="M0 0 C2.97 0.495 2.97 0.495 6 1 C5.01 1.33 4.02 1.66 3 2 C3 2.99 3 3.98 3 5 C3.99 5.33 4.98 5.66 6 6 C5.01 6.33 4.02 6.66 3 7 C2.01 6.34 1.02 5.68 0 5 C-0.1875 2.375 -0.1875 2.375 0 0 Z " fill="#0C4244" transform="translate(186,87)"/>
<path d="M0 0 C2.64465038 3.1254959 3.84414715 6.08788267 5 10 C4.01 10.33 3.02 10.66 2 11 C0.80712589 7.12315913 0 4.08378077 0 0 Z " fill="#45695D" transform="translate(210,71)"/>
<path d="M0 0 C0 0.66 0 1.32 0 2 C0.66 2.33 1.32 2.66 2 3 C-2.29 3 -6.58 3 -11 3 C-7.4144509 0.60963393 -4.2914923 0 0 0 Z " fill="#284844" transform="translate(113,251)"/>
<path d="M0 0 C2.475 0.495 2.475 0.495 5 1 C5 1.66 5 2.32 5 3 C5.66 3.33 6.32 3.66 7 4 C5.02 4.33 3.04 4.66 1 5 C0.67 3.35 0.34 1.7 0 0 Z " fill="#B46C39" transform="translate(114,234)"/>
<path d="M0 0 C2.375 -0.125 2.375 -0.125 5 0 C7 2 7 2 7 6 C6.01 6 5.02 6 4 6 C4 5.01 4 4.02 4 3 C2.68 3 1.36 3 0 3 C0 2.01 0 1.02 0 0 Z " fill="#2A5147" transform="translate(161,79)"/>
<path d="M0 0 C0.66 0.99 1.32 1.98 2 3 C2.8353125 3.9590625 2.8353125 3.9590625 3.6875 4.9375 C5 7 5 7 4.6875 9.25 C4.460625 9.8275 4.23375 10.405 4 11 C1.75972706 8.11964908 -0.16172132 5.15133488 -2 2 C-1.34 2 -0.68 2 0 2 C0 1.34 0 0.68 0 0 Z " fill="#C1BAA9" transform="translate(210,66)"/>
<path d="M0 0 C1.10844919 3.32534757 0.84454356 5.62182575 0 9 C-0.66 9 -1.32 9 -2 9 C-2.33 6.36 -2.66 3.72 -3 1 C-2.01 1.495 -2.01 1.495 -1 2 C-0.67 1.34 -0.34 0.68 0 0 Z " fill="#39322F" transform="translate(207,159)"/>
<path d="M0 0 C1.32 0 2.64 0 4 0 C4 0.66 4 1.32 4 2 C5.65 1.34 7.3 0.68 9 0 C9.99 0.99 10.98 1.98 12 3 C10.56260487 3.02712066 9.12506137 3.04645067 7.6875 3.0625 C6.48673828 3.07990234 6.48673828 3.07990234 5.26171875 3.09765625 C3 3 3 3 0 2 C0 1.34 0 0.68 0 0 Z " fill="#242116" transform="translate(133,155)"/>
<path d="M0 0 C3.3 0 6.6 0 10 0 C8.37660195 1.70884005 6.70680947 3.37446717 5 5 C4.34 5 3.68 5 3 5 C3 4.01 3 3.02 3 2 C2.01 1.34 1.02 0.68 0 0 Z " fill="#0A383E" transform="translate(167,122)"/>
<path d="M0 0 C3.99455527 0.61454696 6.74466336 2.70646737 10 5 C9.01 5.495 9.01 5.495 8 6 C6.0546875 5.22265625 6.0546875 5.22265625 3.875 4.0625 C3.15054688 3.68222656 2.42609375 3.30195313 1.6796875 2.91015625 C1.12539062 2.60980469 0.57109375 2.30945313 0 2 C0 1.34 0 0.68 0 0 Z " fill="#6D3319" transform="translate(139,168)"/>
<path d="M0 0 C0.66 0.33 1.32 0.66 2 1 C2 1.66 2 2.32 2 3 C2.33 3.99 2.66 4.98 3 6 C0 6 0 6 -1.6875 4.625 C-3 3 -3 3 -3 1 C-2.01 0.67 -1.02 0.34 0 0 Z " fill="#235655" transform="translate(182,149)"/>
<path d="M0 0 C0.66 1.32 1.32 2.64 2 4 C2.66 4 3.32 4 4 4 C4 5.65 4 7.3 4 9 C3.34 9 2.68 9 2 9 C2 7.68 2 6.36 2 5 C1.01 4.67 0.02 4.34 -1 4 C-0.67 2.68 -0.34 1.36 0 0 Z " fill="#2F1F22" transform="translate(127,36)"/>
<path d="M0 0 C0.66 0 1.32 0 2 0 C2.69710731 1.28650706 3.38242876 2.57940665 4.0625 3.875 C4.63677734 4.95394531 4.63677734 4.95394531 5.22265625 6.0546875 C5.47917969 6.69664062 5.73570312 7.33859375 6 8 C5.67 8.66 5.34 9.32 5 10 C4.16121545 8.71186658 3.32913217 7.41936744 2.5 6.125 C2.0359375 5.40570313 1.571875 4.68640625 1.09375 3.9453125 C0 2 0 2 0 0 Z " fill="#42512F" transform="translate(179,189)"/>
<path d="M0 0 C0.66 0.33 1.32 0.66 2 1 C2 4.3 2 7.6 2 11 C-0.52380952 5.95238095 -0.52380952 5.95238095 -1 3 C-0.67 2.01 -0.34 1.02 0 0 Z " fill="#3F1E1F" transform="translate(147,100)"/>
<path d="M0 0 C2.50298434 2.93828597 3.46930939 5.17902761 4 9 C3.01 8.67 2.02 8.34 1 8 C0.67 5.36 0.34 2.72 0 0 Z " fill="#314442" transform="translate(191,276)"/>
<path d="M0 0 C1.32 0 2.64 0 4 0 C4 1.32 4 2.64 4 4 C3.01 4.33 2.02 4.66 1 5 C0.34 4.01 -0.32 3.02 -1 2 C-0.67 1.34 -0.34 0.68 0 0 Z " fill="#B18C2A" transform="translate(149,227)"/>
<path d="M0 0 C0.66 0 1.32 0 2 0 C2.6875 2.3125 2.6875 2.3125 3 5 C1.5625 6.8125 1.5625 6.8125 0 8 C0 5.36 0 2.72 0 0 Z " fill="#54282D" transform="translate(76,210)"/>
<path d="M0 0 C3.65316671 1.24976756 4.78065836 1.67098753 7 5 C6.01 5.33 5.02 5.66 4 6 C0 1.125 0 1.125 0 0 Z " fill="#1B3E3A" transform="translate(157,171)"/>
<path d="M0 0 C0.33 0.99 0.66 1.98 1 3 C0.67 3.66 0.34 4.32 0 5 C0.66 5 1.32 5 2 5 C1.67 5.66 1.34 6.32 1 7 C-0.65 5.68 -2.3 4.36 -4 3 C-2.68 2.01 -1.36 1.02 0 0 Z " fill="#0F4342" transform="translate(189,101)"/>
<path d="M0 0 C1.32 0 2.64 0 4 0 C4 1.32 4 2.64 4 4 C2.35 4 0.7 4 -1 4 C-0.67 2.68 -0.34 1.36 0 0 Z " fill="#5E653E" transform="translate(153,75)"/>
<path d="M0 0 C0.66 0 1.32 0 2 0 C1.67 1.32 1.34 2.64 1 4 C1.99 4 2.98 4 4 4 C3.67 4.66 3.34 5.32 3 6 C1.35 6 -0.3 6 -2 6 C-1.49396008 3.83125748 -1.00016187 2.00032373 0 0 Z " fill="#163C3A" transform="translate(191,221)"/>
<path d="M0 0 C0.66 1.32 1.32 2.64 2 4 C0.02 4.66 -1.96 5.32 -4 6 C-2.25 1.125 -2.25 1.125 0 0 Z " fill="#23161E" transform="translate(200,221)"/>
<path d="M0 0 C0.99 0.33 1.98 0.66 3 1 C3.33 2.98 3.66 4.96 4 7 C2.35 5.35 0.7 3.7 -1 2 C-0.67 1.34 -0.34 0.68 0 0 Z " fill="#475755" transform="translate(191,214)"/>
<path d="M0 0 C0.99 0.495 0.99 0.495 2 1 C2 1.66 2 2.32 2 3 C2.99 3.33 3.98 3.66 5 4 C5 4.99 5 5.98 5 7 C4.01 7 3.02 7 2 7 C1.34 4.69 0.68 2.38 0 0 Z " fill="#1D1717" transform="translate(167,172)"/>
<path d="M0 0 C-0.66 1.65 -1.32 3.3 -2 5 C-2.66 4.67 -3.32 4.34 -4 4 C-6.09821215 4.39938767 -6.09821215 4.39938767 -8 5 C-5.81209839 1.71814759 -4.05191042 0 0 0 Z " fill="#331B1D" transform="translate(103,171)"/>
<path d="M0 0 C3.465 1.98 3.465 1.98 7 4 C6.34 4.66 5.68 5.32 5 6 C1.535 4.02 1.535 4.02 -2 2 C-1.34 1.34 -0.68 0.68 0 0 Z " fill="#3D4E43" transform="translate(151,156)"/>
<path d="M0 0 C6.625 0.75 6.625 0.75 10 3 C7.36 3 4.72 3 2 3 C2 2.34 2 1.68 2 1 C1.34 0.67 0.68 0.34 0 0 Z " fill="#93894C" transform="translate(201,90)"/>
</svg>
